<?xml version="1.0" encoding="utf-8"?>
<!-- Generator: Adobe Illustrator 20.0.0, SVG Export Plug-In . SVG Version: 6.00 Build 0)  -->
<svg version="1.1" xmlns="http://www.w3.org/2000/svg" xmlns:xlink="http://www.w3.org/1999/xlink" x="0px" y="0px" width="20px"
	 height="20px" viewBox="0 0 20 20" enable-background="new 0 0 20 20" xml:space="preserve">
<style type="text/css">
	.st0{fill:#FFDC49;}
	.st1{fill:#292929;}
	.st2{fill:#EF353B;}
</style>
<g id="Isolation_Mode_1_">
</g>
<g transform="matrix( 1, 0, 0, 1, 0,0) ">
	<g>
	</g>
</g>
<g id="Layer0_0_FILL">
	<path class="st0" d="M0.2,13.5L0.2,13.5L0.2,13.5L0.2,13.5 M16.9,17c1.1-1.1,1.8-2.3,2.3-3.6H0.8C1.3,14.7,2,15.9,3.1,17
		c1.9,1.9,4.2,2.9,6.9,2.9S15,18.9,16.9,17z"/>
	<path class="st1" d="M0.2,6.6L0.2,6.6L0.2,6.6L0.2,6.6 M19.2,6.6c-0.5-1.3-1.2-2.4-2.3-3.4C15,1.2,12.7,0.3,10,0.3s-5,1-6.9,2.9
		c-1,1-1.8,2.2-2.2,3.4H19.2z"/>
	<path class="st2" d="M19.8,9.2c-0.1-0.9-0.3-1.8-0.6-2.7H0.9c-0.4,1-0.6,2.1-0.6,3.2l0-3.2l0,0v6.8l0,0l0-3.1
		c0,1.1,0.2,2.1,0.6,3.1h18.4c0.3-0.8,0.5-1.6,0.5-2.5V9.2z"/>
</g>
</svg>
