<?xml version="1.0" encoding="utf-8"?>
<!-- Generator: Adobe Illustrator 20.0.0, SVG Export Plug-In . SVG Version: 6.00 Build 0)  -->
<svg version="1.1" id="Layer_1" xmlns="http://www.w3.org/2000/svg" xmlns:xlink="http://www.w3.org/1999/xlink" x="0px" y="0px"
	 viewBox="0 0 351 160" style="enable-background:new 0 0 351 160;" xml:space="preserve">
<style type="text/css">
	.st0{enable-background:new    ;}
	.st1{fill:#FFFFFF;}
</style>
<g class="st0">
	<path class="st1" d="M47.5,93.3c-10.5,0-19.4-3.7-26.9-11.2C13.2,74.7,9.5,65.8,9.5,55.3s3.7-19.4,11.2-26.9
		C28.1,21,37,17.2,47.5,17.2S67,21,74.4,28.4s11.2,16.4,11.2,26.9s-3.7,19.4-11.2,26.9C67,89.6,58,93.3,47.5,93.3z M47.5,38.3
		c-4.6,0-8.6,1.6-12,4.9c-3.3,3.3-4.9,7.3-4.9,12c0,4.6,1.6,8.6,4.9,12c3.3,3.3,7.3,4.9,12,4.9c4.6,0,8.6-1.6,12-4.9
		c3.3-3.3,4.9-7.3,4.9-12c0-4.6-1.6-8.6-4.9-12C56.2,40,52.2,38.3,47.5,38.3z"/>
	<path class="st1" d="M125.7,93.3c-9.3,0-17.2-3.2-23.8-9.8C95.3,76.9,92,69,92,59.7V21.4c0-1.2,0.4-2.2,1.2-3
		c0.9-0.8,1.8-1.2,3-1.2h12.7c1.2,0,2.2,0.4,3,1.2c0.8,0.8,1.2,1.8,1.2,3v38.2c0,3.5,1.2,6.4,3.7,8.9c2.5,2.4,5.5,3.7,8.9,3.6
		c3.4-0.1,6.3-1.3,8.7-3.8c2.4-2.4,3.6-5.4,3.6-8.8V21.4c0-1.2,0.4-2.2,1.3-3c0.8-0.8,1.8-1.2,3-1.2H155c1.2,0,2.2,0.4,3,1.2
		c0.8,0.8,1.2,1.8,1.2,3v37.9c0,9.3-3.3,17.3-9.8,23.9C142.8,89.9,134.9,93.3,125.7,93.3z"/>
	<path class="st1" d="M182.4,17.2c1.2,0,2.2,0.4,3,1.2c0.8,0.8,1.2,1.8,1.2,3v67.7c0,1.1-0.4,2.1-1.2,3c-0.8,0.8-1.8,1.2-3,1.2
		h-12.7c-1.1,0-2.1-0.4-3-1.2c-0.8-0.9-1.2-1.8-1.2-3V21.4c0-1.2,0.4-2.2,1.2-3c0.9-0.8,1.8-1.2,3-1.2
		C169.7,17.2,182.4,17.2,182.4,17.2z"/>
	<path class="st1" d="M216,59.8c-0.3-0.4-0.7-0.6-1.2-0.4c-0.5,0.2-0.7,0.5-0.7,1v28.7c0,1.1-0.4,2.1-1.2,3c-0.8,0.8-1.8,1.2-3,1.2
		h-12.7c-1.1,0-2.1-0.4-3-1.2c-0.8-0.9-1.2-1.8-1.2-3V21.4c0-1.2,0.4-2.2,1.2-3c0.9-0.8,1.8-1.2,3-1.2h12.6c1.5,0,2.6,0.6,3.5,1.8
		l22.2,31.6c0.3,0.4,0.7,0.6,1.2,0.4c0.5-0.2,0.7-0.5,0.7-1V21.4c0-1.2,0.4-2.2,1.2-3c0.9-0.8,1.9-1.2,3-1.2h12.7
		c1.2,0,2.2,0.4,3,1.2c0.8,0.8,1.2,1.8,1.2,3v67.7c0,1.1-0.4,2.1-1.2,3c-0.8,0.8-1.8,1.2-3,1.2h-12.6c-1.5,0-2.6-0.6-3.5-1.8
		L216,59.8z"/>
	<path class="st1" d="M302.9,93.3c-10.5,0-19.4-3.7-26.9-11.2c-7.4-7.4-11.2-16.4-11.2-26.9s3.7-19.4,11.2-26.9
		c7.4-7.4,16.4-11.2,26.9-11.2s19.4,3.7,26.9,11.2c7.4,7.4,11.2,16.4,11.2,26.9s-3.7,19.4-11.2,26.9
		C322.3,89.6,313.4,93.3,302.9,93.3z M302.9,38.3c-4.6,0-8.6,1.6-12,4.9c-3.3,3.3-4.9,7.3-4.9,12c0,4.6,1.6,8.6,4.9,12
		c3.3,3.3,7.3,4.9,12,4.9c4.6,0,8.6-1.6,12-4.9c3.3-3.3,4.9-7.3,4.9-12c0-4.6-1.6-8.6-4.9-12C311.5,40,307.5,38.3,302.9,38.3z"/>
</g>
<g class="st0">
	<path class="st1" d="M37.9,123.5L59.4,102h0.2c0.4,0,0.9,0,1.3,0l-23,23c0-0.2,0-0.3,0-0.2c0-0.2,0-0.3,0-0.5v-0.1
		c0-0.2,0-0.4,0-0.5V123.5z M38,121.8c0.1-0.6,0.2-1.3,0.3-1.9l17.5-17.5c0.6-0.1,1.2-0.2,1.9-0.2L38,121.8z M38.3,128
		c-0.1-0.5-0.2-0.9-0.2-1.4l24.4-24.4c0.5,0.1,1,0.1,1.4,0.2L38.3,128z M39,130.7c-0.1-0.4-0.3-0.8-0.4-1.2l26.6-26.6
		c0.4,0.1,0.8,0.2,1.2,0.4L39,130.7z M38.8,117.7c0.3-0.9,0.6-1.7,0.9-2.6L51,103.8c0.8-0.3,1.7-0.6,2.6-0.9L38.8,117.7z M40,133
		c-0.2-0.4-0.3-0.7-0.5-1.2l11-10.9c-0.2,0.6-0.3,1.2-0.4,1.9l0,0c0-0.1,0,0,0,0.1L40,133z M50,124.8L50,124.8
		c0,0.4,0.1,0.8,0.2,1.2l-9.1,9.1c-0.2-0.3-0.4-0.7-0.6-1l9.5-9.5C50,124.8,50,124.8,50,124.8z M50.6,127.3c0.1,0.4,0.3,0.8,0.5,1.1
		l-8.7,8.7c-0.2-0.3-0.5-0.6-0.7-0.9L50.6,127.3z M41.8,111.4c0.7-1.1,1.6-2,2.5-2.9s1.9-1.7,2.9-2.5L41.8,111.4z M51.8,129.4
		c0.2,0.3,0.5,0.6,0.7,0.9l-8.5,8.5c-0.3-0.3-0.5-0.6-0.8-0.9L51.8,129.4z M53.4,131.1c0.3,0.2,0.6,0.5,0.9,0.7l-8.6,8.6
		c-0.3-0.2-0.6-0.5-0.9-0.8L53.4,131.1z M55.4,132.5c0.4,0.2,0.8,0.3,1.2,0.5l-8.9,8.9c-0.3-0.2-0.7-0.4-1-0.7L55.4,132.5z
		 M57.9,133.3c0.5,0.1,1,0.2,1.5,0.2l-9.7,9.6c-0.3-0.2-0.7-0.4-1-0.6L57.9,133.3z M52,144.1c-0.4-0.2-0.8-0.3-1.2-0.5l10.3-10.3
		c0.8-0.1,1.6-0.3,2.3-0.6L52,144.1z M78.8,119h1.6l-25.9,26c-0.4-0.1-0.9-0.2-1.3-0.4L78.8,119z M81.4,121.3l-24.1,24.1
		c-0.5-0.1-1-0.1-1.4-0.2l25.5-25.5V121.3z M58.8,114.2c-0.7,0.1-1.4,0.2-2,0.4l10.9-11c0.4,0.2,0.8,0.3,1.2,0.5L58.8,114.2z
		 M81.4,124.6l-20.9,20.9c-0.3,0-0.6,0-0.8,0s-0.5,0-0.8,0L81.4,123V124.6z M70,104.7c0.3,0.2,0.7,0.4,1,0.6l-9.1,9.1
		c-0.4-0.1-0.9-0.2-1.4-0.2L70,104.7z M81.4,127.9L64.2,145c-0.6,0.1-1.3,0.3-1.9,0.3l19.1-19.1C81.4,126.2,81.4,127.9,81.4,127.9z
		 M72,105.9c0.3,0.2,0.7,0.5,0.9,0.7l-8.7,8.7c-0.3-0.2-0.7-0.4-1.1-0.5L72,105.9z M63.3,127.9l8.9-8.9h1.6l-9.7,9.7h-0.9v-0.8H63.3
		z M63.3,124.6l5.6-5.6h1.6l-7.3,7.2L63.3,124.6L63.3,124.6z M63.3,121.3l2.3-2.3h1.6l-4,4v-1.7H63.3z M63.3,119h0.6l-0.6,0.6V119z
		 M73.9,107.4c0.3,0.2,0.6,0.5,0.9,0.8l-8.5,8.5c-0.3-0.3-0.6-0.5-0.9-0.7L73.9,107.4z M75.5,119h1.6l-9.7,9.7h-1.6L75.5,119z
		 M69.3,143.2c-0.9,0.4-1.8,0.8-2.8,1.2l14.8-14.8v1.6L69.3,143.2L69.3,143.2z M81.4,134.5l-11,11h-1v-0.6l12.1-12.1L81.4,134.5
		L81.4,134.5z M81.4,137.8l-7.7,7.7H72l9.4-9.4V137.8z M81.4,141.1l-4.4,4.4h-1.6l6-6V141.1z M80.3,145.5h-1.6l2.7-2.8v1.6
		L80.3,145.5z"/>
	<path class="st1" d="M107.7,102.1L85,124.8v-1.6l21.1-21.1C106.1,102.1,107.7,102.1,107.7,102.1z M104.4,102.1L85,121.5v-1.6
		l17.8-17.8C102.8,102.1,104.4,102.1,104.4,102.1z M101.1,102.1L85,118.2v-1.6l14.5-14.5H101.1z M97.8,102.1L85,114.9v-1.6
		l11.2-11.2C96.2,102.1,97.8,102.1,97.8,102.1z M94.5,102.1l-9.5,9.5V110l7.9-7.9H94.5z M91.2,102.1l-6.2,6.2v-1.6l4.6-4.6H91.2z
		 M87.9,102.1L85,105v-1.6l1.3-1.3H87.9z M97.1,114.4v1.6L85,128v-1.6L97.1,114.4z M97.1,117.7v1.3h0.3L85,131.4v-1.6L97.1,117.7z
		 M107.3,119l-9.7,9.7H97v0.5l-12,12.1v-1.6l20.7-20.7H107.3z M104,119l-19,19v-1.6l17.4-17.4C102.4,119,104,119,104,119z
		 M100.7,119L85,134.7V133l14.1-14H100.7z M97.1,130.9v1.6L85,144.6V143L97.1,130.9z M99.4,133.5l-12.1,12.1h-1.6l12.1-12.1H99.4z
		 M102.7,133.5l-12.1,12.1H89l12.1-12.1H102.7z M106,133.5l-12,12h-1.6l12.1-12.1h1.5V133.5z M109.3,133.5l-12.1,12.1h-1.6
		l12.1-12.1H109.3z M111,102.1l-12.1,12.1h-1.6l12.1-12.1H111z M112.6,133.5l-12.1,12.1h-1.6l12.1-12.1H112.6z M109,119h1.6
		l-9.7,9.7h-1.6L109,119z M114.3,102.1l-12.1,12.1h-1.6l12.1-12.1H114.3z M115.9,133.5l-12.1,12.1h-1.6l12.1-12.1H115.9z M112.3,119
		h1.6l-9.7,9.7h-1.6L112.3,119z M117.6,102.1l-12.1,12.1h-1.6l12.1-12.1H117.6z M119.2,133.5l-12.1,12.1h-1.6l12.1-12.1H119.2z
		 M105.9,128.6l8.5-8.5v1.6l-6.8,6.8h-1.7V128.6z M120.9,102.1l-12.1,12.1h-1.6l12.1-12.1H120.9z M122.4,133.5L122.4,133.5l-12,12.1
		h-1.6l12.1-12.1H122.4z M114.4,125.1l-3.6,3.6h-1.6l5.2-5.2V125.1z M122.4,102.2v1.6l-10.3,10.3h-1.6L122.4,102.2z M122.4,135.2
		v1.6l-8.7,8.7h-1.6L122.4,135.2z M114.2,128.6h-1.6l1.9-1.9v1.6L114.2,128.6z M122.4,105.5v1.6l-7,7h-1.6L122.4,105.5z
		 M122.4,138.5v1.6l-5.4,5.4h-1.6L122.4,138.5z M122.4,108.8v1.6l-3.7,3.7h-1.6L122.4,108.8z M122.4,141.8v1.6l-2.1,2.1h-1.6
		L122.4,141.8z M122.4,112.1v1.6l-0.4,0.4h-1.6L122.4,112.1z M122.4,145.1v0.4H122L122.4,145.1z"/>
	<path class="st1" d="M147.2,102.1c0.5,0,0.9,0,1.4,0.1L126,124.8v-1.6l21-21L147.2,102.1L147.2,102.1z M143.8,102.1h1.6l-19.3,19.3
		v-1.6L143.8,102.1z M126.1,116.4l14.4-14.4h1.6l-16,16C126.1,118,126.1,116.4,126.1,116.4z M138.8,102.1l-12.7,12.7v-1.6l11.1-11.1
		H138.8z M133.9,102.1h1.6l-9.4,9.4v-1.6L133.9,102.1z M126.1,106.6l4.5-4.5h1.6l-6.1,6.1L126.1,106.6L126.1,106.6z M127.3,102.1
		h1.6l-2.8,2.8v-1.6L127.3,102.1z M138.1,115.9l-12,12.1v-1.6l12.1-12.1L138.1,115.9L138.1,115.9z M126.1,129.7l12.1-12.1v1.6
		l-12.1,12.1V129.7z M126.1,132.9l12.1-12.1v1.6l-12.1,12.1V132.9z M147.2,122.6c0.3,0,0.6,0,0.9-0.1l-22,22v-1.6l20.3-20.3
		C146.4,122.6,147.2,122.6,147.2,122.6z M126.1,139.6l17-17h1.6l-18.6,18.6L126.1,139.6L126.1,139.6z M126.1,136.3l13.7-13.7h1.6
		l-15.3,15.3C126.1,137.9,126.1,136.3,126.1,136.3z M161.6,110.7c0.2,0.4,0.4,0.7,0.5,1.1l-22.9,22.9h-1.1v1.1l-9.8,9.8h-1.6
		L161.6,110.7z M138.1,139l-6.5,6.5H130l8.1-8.1V139z M138.1,142.3l-3.2,3.2h-1.6l4.8-4.8V142.3z M138.1,145.5h-1.6l1.6-1.5V145.5z
		 M150.1,102.3c0.4,0.1,0.9,0.2,1.3,0.3l-11.5,11.5h-1.6L150.1,102.3z M142.5,134.6h-1.6l21.7-21.7c0.1,0.4,0.3,0.8,0.4,1.2
		L142.5,134.6z M152.7,103c0.4,0.1,0.8,0.3,1.2,0.5l-10.6,10.6h-1.6L152.7,103z M163.3,115.6c0.1,0.5,0.1,1,0.2,1.5l-19.4,19.4
		l-0.6-1L163.3,115.6z M145.3,138.5l-0.6-1l18.8-18.8c0,0.6,0,1.2-0.1,1.8L145.3,138.5z M155,104c0.3,0.2,0.7,0.4,1,0.6l-9.5,9.5
		h-1.6L155,104z M146.5,140.5l-0.6-1l17-17c-0.2,0.9-0.5,1.7-0.9,2.5L146.5,140.5z M147.7,142.6l-0.6-1l8.8-8.8l0.6,1L147.7,142.6z
		 M157,105.3c0.3,0.2,0.6,0.5,0.9,0.7l-8.6,8.6c-0.4-0.2-0.7-0.4-1.2-0.5L157,105.3z M149,144.7l-0.6-1l8.8-8.8l0.6,1L149,144.7z
		 M158.4,136.9l0.6,1l-7.6,7.6h-1.6L158.4,136.9z M158.8,106.9c0.3,0.3,0.5,0.6,0.8,0.9l-8.6,8.6c-0.2-0.3-0.4-0.7-0.7-0.9
		L158.8,106.9z M151.3,119.2c0.1-0.3,0.1-0.6,0.1-0.9s0-0.5-0.1-0.8l8.9-8.9c0.2,0.3,0.4,0.6,0.6,0.9L151.3,119.2z M154.7,145.5
		h-1.6l6.5-6.5l0.6,1L154.7,145.5z M158,145.5h-1.6l4.5-4.5l0.6,1L158,145.5z M161.3,145.5h-1.6l2.4-2.4l0.6,1L161.3,145.5z
		 M163.3,145.2l0.2,0.3H163L163.3,145.2z"/>
	<path class="st1" d="M178.8,102.1l0.1,0.2l-11.8,11.9v-1.6l10.4-10.4L178.8,102.1L178.8,102.1z M175.8,102.1l-8.7,8.7v-1.6l7.1-7.1
		H175.8z M172.5,102.1l-5.4,5.4v-1.6l3.8-3.8H172.5z M169.2,102.1l-2.1,2.1v-1.6l0.5-0.5H169.2z M179.7,103.2l0.7,0.9l-13.2,13.2
		v-1.6L179.7,103.2z M181,105.2l0.7,0.9l-14.6,14.6V119L181,105.2z M182.4,107.1l0.7,1L167.2,124v-1.6L182.4,107.1z M183.7,109
		l0.7,1l-17.3,17.3v-1.6L183.7,109z M185.1,111l0.7,1l-18.6,18.6V129L185.1,111z M186.4,112.9l0.7,1l-20,20v-1.6L186.4,112.9z
		 M187.8,114.9l0.7,0.9l-8.7,8.7l-0.6-0.9v1.5l-12.1,12.1v-1.6L187.8,114.9z M179.2,126.7v1.6l-12.1,12.1v-1.6L179.2,126.7z
		 M179.2,130.1v1.6l-12.1,12.1v-1.6L179.2,130.1z M179.2,133.4v1.6l-10.5,10.5h-1.5v-0.1L179.2,133.4z M179.2,136.7v1.6l-7.2,7.2
		h-1.6L179.2,136.7z M179.2,140v1.6l-3.9,4h-1.6L179.2,140z M179.2,143.2v1.6l-0.6,0.6H177L179.2,143.2z M189.2,116.8l0.7,0.9
		l-8.7,8.7l-0.7-1L189.2,116.8z M208.8,102.1l-26.3,26.3l-0.7-0.9l25.3-25.3L208.8,102.1L208.8,102.1z M212.1,102.1l-28.2,28.2
		l-0.7-0.9l27.3-27.3C210.5,102.1,212.1,102.1,212.1,102.1z M213,102.9v1.6l-27.8,27.8l-0.7-0.9L213,102.9z M213,106.1v1.6
		l-26.4,26.4l-0.7-0.9L213,106.1z M213,109.4v1.6l-25.1,25l-0.7-1L213,109.4z M198.1,127.6l-3.8,5.4l-5,5l-0.7-1L198.1,127.6z
		 M190.4,138.6l-0.4,0.5l-0.1-0.1L190.4,138.6z M205.5,102.1l-14.1,14.1l3.8-5.4l8.7-8.7H205.5z M202.2,102.1l-3.1,3.1l2.2-3.1
		H202.2z M213,112.8v1.6l-12.1,12.1v-1.6L213,112.8z M213,116v1.6l-12.1,12.1v-1.6L213,116z M213,119.4v1.6l-12.1,12.1v-1.6
		L213,119.4z M213,122.6v1.6l-12.1,12.1v-1.6L213,122.6z M213,126v1.6l-12.1,12.1V138L213,126z M213,129.3v1.6L200.9,143v-1.6
		L213,129.3z M213,132.5v1.6l-11.4,11.3h-0.7v-0.9L213,132.5z M213,135.9v1.6l-8.1,8.1h-1.6L213,135.9z M213,139.1v1.6l-4.8,4.7
		h-1.6L213,139.1z M213,142.5v1.6l-1.5,1.5h-1.6L213,142.5z"/>
	<path class="st1" d="M239,119.9l-1,2.7l-21.3,21.3l1-2.7L239,119.9z M236.9,125.4l-0.8,2h0.4l-18.1,18.1h-1.6L236.9,125.4z
		 M219.8,135.8l28.9-28.9l0.4,1.2l-30.4,30.4L219.8,135.8z M239.7,127.4l-18.1,18.1H220l18.1-18.1H239.7z M248.3,105.7l-27.4,27.4
		l1.1-2.7l25.9-25.9L248.3,105.7z M246.9,102.1l0.4,1.2L223,127.6l1-2.6L246.9,102.1z M243.1,127.4L225,145.5h-1.6l18.1-18.1H243.1z
		 M245.3,102.1l-20.2,20.1l1.1-2.6l17.5-17.5H245.3z M230.5,141.6l-1.1,2.7l-1.2,1.2h-1.6L230.5,141.6z M242,102.1l-14.7,14.7l1-2.7
		l12.1-12.1L242,102.1L242,102.1z M238.7,102.1l-9.3,9.3l1-2.7l6.7-6.7L238.7,102.1L238.7,102.1z M235.4,102.1l-3.9,3.9l1.1-2.7
		l1.2-1.2C233.8,102.1,235.4,102.1,235.4,102.1z M234.3,139.5h-1.6l20.6-20.6l0.5,1.2L234.3,139.5z M254.2,121.2l0.5,1.2l-17,17
		h-1.6L254.2,121.2z M240.9,139.5h-1.6l15.8-15.8l0.5,1.2L240.9,139.5z M240.7,119.8l-0.4-1.2l9.3-9.4l0.5,1.2L240.7,119.8z
		 M250.5,111.7l0.5,1.2l-9.4,9.3l-0.5-1.2L250.5,111.7z M242.5,124.6l-0.5-1.2l9.4-9.4l0.5,1.2L242.5,124.6z M244.2,139.5h-1.6
		L256,126l0.5,1.2L244.2,139.5z M243.5,127l-0.5-1.2l9.4-9.4l0.5,1.2L243.5,127z M247.5,139.5h-1.6l11.1-11.1l0.4,1.2L247.5,139.5z
		 M248.9,141.4l-0.4-1.2l9.4-9.4l0.4,1.2L248.9,141.4z M249.8,143.7l-0.4-1.2l9.4-9.4l0.4,1.2L249.8,143.7z M259.6,135.6l0.5,1.2
		l-8.8,8.8h-0.8l-0.2-0.6L259.6,135.6z M260.5,138l0.5,1.2l-6.4,6.4H253L260.5,138z M261.4,140.4l0.5,1.2l-4,4h-1.6L261.4,140.4z
		 M262.4,142.8l0.5,1.2l-1.6,1.6h-1.6L262.4,142.8z M263.3,145.2l0.2,0.4H263L263.3,145.2z"/>
	<path class="st1" d="M277.9,102.1L277.9,102.1l-10.9,11v-1.6l9.4-9.4H277.9z M274.8,102.1l-7.7,7.7v-1.6l6.1-6.1H274.8z
		 M271.5,102.1l-4.4,4.4v-1.6l2.8-2.8H271.5z M268.2,102.1l-1.1,1.1v-1.1H268.2z M278.7,103.1l0.7,1l-12.3,12.3v-1.6L278.7,103.1z
		 M280,105.1l0.7,1l-13.6,13.6v-1.6L280,105.1z M281.4,107l0.7,1l-15,15v-1.6L281.4,107z M282.8,109l0.7,0.9l-16.4,16.4v-1.6
		L282.8,109z M284.1,110.9l0.7,0.9l-17.7,17.7V128L284.1,110.9z M285.5,112.9l0.7,0.9l-19.1,19.1v-1.6L285.5,112.9z M286.9,114.8
		l0.7,0.9l-20.5,20.5v-1.6L286.9,114.8z M279.1,125.8v1.6L267,139.5v-1.6L279.1,125.8z M279.1,129.1v1.6L267,142.8v-1.6L279.1,129.1
		z M279.1,132.4v1.6l-11.5,11.5H267v-1.1L279.1,132.4z M279.1,135.7v1.6l-8.2,8.2h-1.6L279.1,135.7z M279.1,139v1.6l-4.9,4.9h-1.6
		L279.1,139z M279.1,142.3v1.6l-1.6,1.6h-1.6L279.1,142.3z M280.2,126.3l-0.7-0.9l8.7-8.7l0.7,1L280.2,126.3z M281.6,128.3l-0.7-0.9
		l8.7-8.7l0.7,1L281.6,128.3z M282.9,130.2l-0.7-1l8.7-8.7l0.7,1L282.9,130.2z M304.5,110.3v1.6l-20.2,20.2l-0.7-1l8.7-8.7l0.1,0.2
		v-0.4L304.5,110.3z M304.5,113.6v1.6l-18.8,18.9l-0.7-1L304.5,113.6z M304.5,116.9v1.6L287,136.1l-0.7-1L304.5,116.9z M304.5,120.2
		v1.6L288.4,138l-0.7-0.9L304.5,120.2z M304.5,123.6v1.6L289.7,140l-0.7-1L304.5,123.6z M304.5,126.8v1.6l-13.4,13.4l-0.7-0.9
		L304.5,126.8z M304.5,130.1v1.6l-12,12.1l-0.7-0.9L304.5,130.1z M304.5,102.1l-12.1,12.1v-1.6l10.5-10.5H304.5z M301.2,102.1
		l-8.8,8.8v-1.6l7.1-7.1h1.7V102.1z M297.9,102.1l-5.5,5.5V106l3.9-3.9H297.9z M294.6,102.1l-2.2,2.2v-1.6l0.5-0.5L294.6,102.1
		L294.6,102.1z M304.5,103.7v1.6l-12.1,12.1v-1.6L304.5,103.7z M304.5,107v1.6l-12.1,12.1v-1.6L304.5,107z M304.5,133.4v1.6
		L294,145.5h-0.4l-0.5-0.7L304.5,133.4z M304.5,136.7v1.6l-7.1,7.2h-1.6L304.5,136.7z M304.5,140v1.6l-3.9,3.9H299L304.5,140z
		 M304.5,143.3v1.6l-0.5,0.5h-1.6L304.5,143.3z"/>
</g>
</svg>
