<?xml version="1.0" encoding="utf-8"?>
<!-- Generator: Adobe Illustrator 20.0.0, SVG Export Plug-In . SVG Version: 6.00 Build 0)  -->
<svg version="1.1" id="Layer_1" xmlns="http://www.w3.org/2000/svg" xmlns:xlink="http://www.w3.org/1999/xlink" x="0px" y="0px"
	 viewBox="0 0 300 250" style="enable-background:new 0 0 300 250;" xml:space="preserve">
<style type="text/css">
	.st0{fill:#FFDC49;}
	.st1{fill:#292929;}
	.st2{fill:#EF353B;}
	.st3{fill:#304554;}
	.st4{fill:#CCD3D6;}
	.st5{fill:#DEE3E5;}
	.st6{fill:#AAB8BF;}
</style>
<g id="Layer0_0_FILL">
	<path class="st0" d="M80.3,167.3v-0.5l0,0V167.3 M196.7,194.1c7.5-8.2,12.8-17.2,16.1-27.2H84.3c3.3,10,8.6,19.1,16.1,27.2
		c13.3,14.6,29.4,21.9,48.2,21.9C167.4,216.1,183.4,208.7,196.7,194.1z"/>
	<path class="st1" d="M80.3,114.6v-0.5V114.6L80.3,114.6 M212.5,114.6c-3.3-9.6-8.6-18.3-15.7-26.2c-13.3-14.6-29.4-21.9-48.2-21.9
		s-34.9,7.3-48.2,21.9c-7.2,7.8-12.4,16.6-15.7,26.2H212.5z"/>
	<path class="st2" d="M216.4,134.9c-0.5-7.2-1.8-14-4-20.3H84.7c-2.7,7.7-4,15.9-4.2,24.8v-24.8l0,0v52.3l0,0v-23.6
		c0.2,8.4,1.5,16.3,3.9,23.6h128.5c2-6.1,3.2-12.4,3.7-19.2L216.4,134.9L216.4,134.9z"/>
</g>
<path class="st3" d="M151.3,40h-6.8c-10.4,0-19.9,2.7-28,7.3c-1.7,1-2.6,0.4-3.3-0.6l-5.6-8.8c10.5-6.7,23.2-10.5,36.9-10.5h6.8
	c15.6,0,29.6,4.4,41,12.1l-5.9,8.8c-0.8,1.2-1.8,1.2-3,0.4C174.5,43.2,163.6,40,151.3,40L151.3,40z"/>
<g>
	<polygon class="st3" points="68.9,127.9 76.8,100.2 69.4,98.1 61.5,125.8 	"/>
	<g>
		<path class="st4" d="M63.3,192.8l-5.4,1.5c-0.9,0.2-1.7-0.3-2-1.3c-6.7-13.4-11.9-29.9-12.1-45c-0.1-1,0.3-1.8,1.3-2l5.4-1.5
			L63.3,192.8L63.3,192.8z"/>
		<path class="st5" d="M96.8,206.9l-19.4-1.7c-3.5-0.1-6.3-1.8-7.5-6l-17.1-63.7c-1.2-4.2,0.4-7.2,3.5-9l15.9-11.1
			c0.6-0.5,1.9-0.7,2.2,0.5l24,89.4C98.6,206.5,97.5,206.9,96.8,206.9L96.8,206.9z"/>
		<path class="st6" d="M107.6,201.9l-8.1,4.3c-0.5,0.3-0.9,0.4-1-0.4l-24.1-90.1c-0.2-0.7,0.2-0.8,0.7-0.9l9.2-0.4
			c1.7-0.1,3.1,1.2,3.9,3.8l21,78.5C109.8,199.3,109.2,201.1,107.6,201.9L107.6,201.9z"/>
		<path class="st3" d="M69.1,195.8l-5.4,1.5c-0.9,0.2-1.8-0.3-2.1-1.1l-14.4-53.6c-0.2-0.9,0.3-1.8,1.3-2l5.4-1.5L69.1,195.8
			L69.1,195.8z"/>
		<polygon class="st4" points="80.3,205.5 77.9,205.3 56.7,126.3 58.7,124.9 		"/>
	</g>
</g>
<g>
	<polygon class="st3" points="229,126.8 221.5,99.1 228.5,97 236,124.7 	"/>
	<g>
		<path class="st4" d="M234.3,191.5l5.1,1.5c0.8,0.2,1.6-0.3,1.9-1.3c6.4-13.4,11.3-29.9,11.5-45c0.1-1-0.2-1.8-1.2-2l-5.1-1.5
			L234.3,191.5L234.3,191.5z"/>
		<path class="st5" d="M202.6,205.6l18.4-1.7c3.4-0.1,6-1.8,7.1-6l16.2-63.7c1.1-4.2-0.4-7.2-3.3-9l-15.1-11.1
			c-0.6-0.5-1.8-0.7-2.1,0.5L201,204C200.8,205.2,201.8,205.6,202.6,205.6L202.6,205.6z"/>
		<path class="st6" d="M192.2,200.6l7.7,4.3c0.4,0.3,0.8,0.4,1-0.4l22.9-90.1c0.2-0.7-0.2-0.8-0.7-0.9l-8.7-0.4
			c-1.6-0.1-3,1.2-3.7,3.8l-19.9,78.5C190.2,198,190.7,199.9,192.2,200.6L192.2,200.6z"/>
		<path class="st3" d="M228.8,194.5l5.1,1.5c0.8,0.2,1.7-0.3,2-1.1l13.7-53.6c0.2-0.9-0.2-1.8-1.2-2l-5.1-1.5L228.8,194.5
			L228.8,194.5z"/>
		<polygon class="st4" points="218.2,204.2 220.4,204 240.5,125 238.7,123.7 		"/>
	</g>
</g>
<path class="st5" d="M152,17.2c46.4,0,82.4,29.7,82.4,69.3v18.8c0,1-0.2,1.7-1.7,1.7H221c-1.6,0-1.7-0.6-1.7-1.8V86.4
	c0-29.1-26.7-54.1-67.2-54.1h-7.8c-38.2,0-64.8,25.5-64.9,54.8v18c0,1.1-0.2,1.8-1.4,1.8H66.3c-1.8,0-2.1-0.8-2.1-2l0,0V87.1
	c0.1-39.5,35.4-69.9,80-69.9"/>
</svg>
