<?xml version="1.0" encoding="utf-8"?>
<!-- Generator: Adobe Illustrator 20.0.0, SVG Export Plug-In . SVG Version: 6.00 Build 0)  -->
<svg version="1.1" id="Layer_1" xmlns="http://www.w3.org/2000/svg" xmlns:xlink="http://www.w3.org/1999/xlink" x="0px" y="0px"
	 viewBox="0 0 370 463" style="enable-background:new 0 0 370 463;" xml:space="preserve">
<g transform="matrix( 1, 0, 0, 1, 128.05,-80) ">
	<g>
		<g id="Layer0_0_FILL">
			<path d="M-36,546.1v-68.4h-9.5v68.4H-36 M-10.3,477.7h-9.5v68.4h9.5V477.7 M-15,467.1l-2.6,2.3c-1.7,2.1-2.6,4.5-2.6,7.3h10.2
				c0-2.8-0.9-5.3-2.6-7.3L-15,467.1 M-40.8,467.1l-2.6,2.3c-1.7,2.1-2.6,4.5-2.6,7.3h10.2c0-2.8-0.9-5.3-2.6-7.3L-40.8,467.1
				 M-44.3,451.7c0.9-0.6,1.7-1.1,2.5-1.4c0.4-0.2,0.7-0.3,1-0.3l1,0.3c0.8,0.3,1.7,0.8,2.5,1.4c2.7,2,5.2,5.1,7.3,9.2l-10.8-28.3
				l-10.7,28.3C-49.4,456.8-47,453.8-44.3,451.7 M-39.4,457.6l-1.3-1l-1.3,1c-1.1,0.8-2,1.8-2.9,2.9c-2.8,3.5-4.3,7.6-4.3,12.3v73.3
				h1.2v-70.2c0-4,1.2-7.6,3.7-10.6c0.8-0.9,1.6-1.8,2.5-2.5l1.1-0.8l1.1,0.8c0.9,0.7,1.8,1.6,2.6,2.5c2.4,3,3.7,6.5,3.7,10.6v70.2
				h1.2v-73.3c0-4.7-1.4-8.8-4.3-12.3C-37.4,459.4-38.4,458.5-39.4,457.6 M-39.3,452.5l-1.5-1.1l-1.5,1.1c-1.2,0.9-2.3,2-3.3,3.3
				c-3.2,4-4.9,8.6-4.9,14v76.4h0.6v-74.8c0-5,1.5-9.3,4.5-13.1c0.9-1.2,2-2.2,3.1-3.1l1.4-1l1.4,1c1.1,0.9,2.2,1.9,3.1,3.1
				c3,3.7,4.5,8.1,4.5,13.1v74.8h0.6v-76.4c0-5.3-1.6-10-4.9-14C-36.9,454.5-38,453.4-39.3,452.5 M-13.7,457.6l-1.3-1l-1.3,1
				c-1.1,0.8-2,1.8-2.9,2.9c-2.8,3.5-4.3,7.6-4.3,12.3v73.3h1.2v-70.2c0-4,1.2-7.6,3.7-10.6c0.8-0.9,1.6-1.8,2.5-2.5l1.1-0.8
				l1.1,0.8c0.9,0.7,1.8,1.6,2.6,2.5c2.4,3,3.7,6.5,3.7,10.6v70.2h1.2v-73.3c0-4.7-1.4-8.8-4.3-12.3
				C-11.7,459.4-12.6,458.5-13.7,457.6 M-15,454.2l1.4,1c1.1,0.9,2.2,1.9,3.1,3.1c3,3.7,4.5,8.1,4.5,13.1v74.8h0.6v-76.4
				c0-5.3-1.6-10-4.9-14c-1-1.2-2.1-2.3-3.3-3.3l-1.5-1.1l-1.5,1.1c-1.2,0.9-2.3,2-3.3,3.3c-3.2,4-4.9,8.6-4.9,14v76.4h0.6v-74.8
				c0-5,1.5-9.3,4.5-13.1c0.9-1.2,2-2.2,3.1-3.1L-15,454.2 M-18.5,451.7c0.8-0.6,1.7-1.1,2.5-1.4c0.4-0.2,0.7-0.3,1-0.3l1,0.3
				c0.8,0.3,1.7,0.8,2.5,1.4c2.7,2,5.2,5.1,7.3,9.2L-15,432.7l-10.7,28.3C-23.7,456.8-21.3,453.8-18.5,451.7 M149.1,477.7v68.4h9.5
				v-68.4H149.1 M55.4,546.1h0.3v-58.2c0-5.8-1.7-10.9-5-15.4c-1.9-2.5-3.9-4.5-6.1-5.8c-1.9,1.2-3.8,2.9-5.5,5.1
				c-3.1,3.9-4.9,8.3-5.4,13.3v61.1h0v-54.6h5.5v54.6h0.7v-54.6h9.4v54.6h0.6v-54.6h5.5V546.1 M55.4,489.2v1.1h-5.5v-1.1
				c0-1.4,0.4-2.7,1.2-3.8c0.5-0.7,1-1.2,1.6-1.6c0.6,0.4,1.1,1,1.6,1.6C55,486.5,55.4,487.8,55.4,489.2 M43.7,471.3
				c0.2-0.3,0.6-0.4,0.9-0.4s0.7,0.1,1,0.4c0.2,0.2,0.4,0.6,0.4,0.9v1.3h1.3c0.4,0,0.7,0.1,1,0.4c0.2,0.2,0.4,0.6,0.4,0.9
				c0,0.3-0.1,0.7-0.4,0.9c-0.3,0.3-0.6,0.4-1,0.4h-1.3v1.2c0,0.4-0.1,0.7-0.4,1c-0.3,0.2-0.6,0.4-1,0.4c-0.4,0-0.7-0.1-0.9-0.4
				c-0.3-0.3-0.4-0.6-0.4-1v-1.2H42c-0.3,0-0.7-0.1-0.9-0.4c-0.3-0.3-0.4-0.6-0.4-0.9c0-0.4,0.1-0.7,0.4-0.9
				c0.3-0.3,0.6-0.4,0.9-0.4h1.3v-1.3C43.3,471.8,43.4,471.5,43.7,471.3 M37.5,477.8c0.5-0.5,1-0.7,1.7-0.7c0.7,0,1.3,0.2,1.8,0.7
				c0.5,0.5,0.7,1,0.7,1.7s-0.2,1.3-0.7,1.8c-0.5,0.5-1.1,0.7-1.8,0.7c-0.7,0-1.2-0.2-1.7-0.7c-0.5-0.5-0.7-1.1-0.7-1.8
				S37.1,478.3,37.5,477.8 M36.4,483.8c0.6,0.4,1.1,1,1.6,1.6c0.8,1.1,1.2,2.4,1.2,3.8v1.1h-5.5v-1.1c0-1.4,0.4-2.7,1.1-3.8
				C35.3,484.7,35.8,484.2,36.4,483.8 M51.7,477.8c0.5,0.5,0.7,1,0.7,1.7s-0.2,1.3-0.7,1.8c-0.5,0.5-1.1,0.7-1.8,0.7
				c-0.7,0-1.2-0.2-1.7-0.7c-0.5-0.5-0.7-1.1-0.7-1.8s0.2-1.2,0.7-1.7c0.5-0.5,1-0.7,1.7-0.7C50.6,477.1,51.2,477.3,51.7,477.8
				 M44.6,480.1c1,0.7,1.9,1.6,2.7,2.8c1.3,1.9,2,4.1,2,6.5v0.9h-9.4v-0.9c0-2.4,0.7-4.6,2-6.5C42.7,481.7,43.6,480.8,44.6,480.1
				 M73.3,471.7c-1.8-2.2-3.6-3.9-5.5-5.1c-2.2,1.4-4.2,3.3-6.1,5.8c-3.3,4.5-5,9.6-5,15.4v58.2H57v-54.6h5.5v54.6h0.6v-54.6h9.4
				v54.6h0.7v-54.6h5.5v54.6h0V485C78.3,480,76.5,475.6,73.3,471.7 M67.8,470.6c0.4,0,0.8,0.2,1.1,0.5c0.3,0.3,0.5,0.7,0.5,1.1v1h1
				c0.4,0,0.8,0.2,1.1,0.5c0.3,0.3,0.5,0.7,0.5,1.1c0,0.4-0.2,0.8-0.5,1.1c-0.3,0.3-0.7,0.5-1.1,0.5h-1v1c0,0.5-0.2,0.8-0.5,1.1
				c-0.3,0.3-0.7,0.5-1.1,0.5c-0.4,0-0.8-0.2-1.1-0.5c-0.3-0.3-0.5-0.7-0.5-1.1v-1h-1c-0.4,0-0.8-0.2-1.1-0.5
				c-0.3-0.3-0.5-0.7-0.5-1.1c0-0.5,0.2-0.8,0.5-1.1c0.3-0.3,0.7-0.5,1.1-0.5h1v-1c0-0.4,0.2-0.8,0.5-1.1S67.4,470.6,67.8,470.6
				 M64.4,477.6c0.5,0.5,0.8,1.1,0.8,1.9c0,0.8-0.3,1.4-0.8,1.9c-0.5,0.5-1.1,0.8-1.9,0.8c-0.8,0-1.4-0.3-1.9-0.8
				c-0.5-0.5-0.8-1.1-0.8-1.9c0-0.8,0.3-1.4,0.8-1.9c0.5-0.5,1.1-0.8,1.9-0.8C63.2,476.8,63.9,477.1,64.4,477.6 M58.2,485.4
				c0.5-0.7,1-1.2,1.6-1.6c0.6,0.4,1.1,1,1.6,1.6c0.8,1.1,1.2,2.4,1.2,3.8v1.1H57v-1.1C57,487.8,57.4,486.5,58.2,485.4 M75.1,477.6
				c0.5,0.5,0.8,1.1,0.8,1.9c0,0.8-0.3,1.4-0.8,1.9c-0.5,0.5-1.2,0.8-1.9,0.8c-0.7,0-1.4-0.3-1.9-0.8c-0.5-0.5-0.8-1.1-0.8-1.9
				c0-0.8,0.3-1.4,0.8-1.9c0.5-0.5,1.2-0.8,1.9-0.8C73.9,476.8,74.5,477.1,75.1,477.6 M76,483.8c0.6,0.4,1.1,0.9,1.6,1.6
				c0.8,1.1,1.1,2.4,1.1,3.8v1.1h-5.5v-1.1c0-1.4,0.4-2.7,1.1-3.8C74.9,484.7,75.4,484.2,76,483.8 M67.8,480.1
				c1.1,0.8,2,1.7,2.7,2.8c1.3,1.9,2,4.1,2,6.5v0.9h-9.4v-0.9c0-2.4,0.7-4.6,2-6.5C65.8,481.8,66.8,480.8,67.8,480.1 M67.4,452.4
				c-3.6-4.5-7.3-7.9-11.2-10.3c-3.9,2.4-7.6,5.9-11.2,10.3c-6.5,8.1-10.2,17.4-11.1,27.8c1.2-4.1,3.3-7.7,6.3-10.8
				c0.9-1,1.9-1.9,3-2.6c0.8-0.6,1.3-0.9,1.3-0.9l0.2-0.1l0.2,0.1c0,0,0.6,0.4,1.6,1.1c1.3,1,2.4,2.1,3.5,3.3c3.5,4,5.6,8.7,6.3,14
				c0.7-5.3,2.8-9.9,6.3-14c1.1-1.2,2.3-2.4,3.5-3.3c1-0.7,1.6-1.1,1.6-1.1l0.2-0.1l0.2,0.1c0,0,0.5,0.3,1.3,0.9c1,0.8,2,1.7,3,2.6
				c3,3.1,5.1,6.7,6.3,10.8C77.7,469.8,74,460.5,67.4,452.4 M56.2,443.5l0.1-0.1l-0.1-0.2l1,0.8c0.8,0.7,1.4,1.6,1.8,2.5
				c1.3,3.1,0.5,7-2.3,11.6l-0.5,0.5l-0.1-0.1c-2.7-4.3-3.6-8-2.9-11C53.8,445.9,54.7,444.5,56.2,443.5 M60.2,452.5
				c0-0.7,0.2-1.2,0.7-1.7c0.5-0.5,1-0.7,1.7-0.7c0.7,0,1.2,0.2,1.7,0.7c0.5,0.5,0.7,1,0.7,1.7s-0.2,1.2-0.7,1.7
				c-0.5,0.5-1,0.7-1.7,0.7c-0.6,0-1.2-0.2-1.7-0.7C60.5,453.7,60.2,453.2,60.2,452.5 M71.8,462.9c0.6,0,1.1,0.2,1.4,0.6
				c0.4,0.4,0.6,0.9,0.6,1.5c0,0.6-0.2,1.1-0.6,1.4c-0.4,0.4-0.9,0.6-1.4,0.6c-0.6,0-1.1-0.2-1.5-0.6c-0.4-0.4-0.6-0.9-0.6-1.4
				c0-0.6,0.2-1.1,0.6-1.5S71.2,462.9,71.8,462.9 M62.6,463.2c0.7,0,1.2,0.2,1.7,0.7c0.5,0.5,0.7,1,0.7,1.7s-0.2,1.2-0.7,1.7
				c-0.5,0.5-1,0.7-1.7,0.7c-0.7,0-1.2-0.2-1.7-0.7c-0.5-0.5-0.7-1-0.7-1.7s0.2-1.2,0.7-1.7C61.4,463.4,61.9,463.2,62.6,463.2
				 M56.5,459l0.3-0.5c1.6-1.2,3.3-1.9,5.2-2.2c3-0.4,5.9,0.5,8.7,2.7c-2.8,2.3-5.7,3.2-8.7,2.7c-1.9-0.3-3.6-1-5.2-2.2L56.5,459
				 M56.3,459.4l0.5,0.5c2.8,4.6,3.6,8.5,2.2,11.6c-0.7,1.6-1.6,2.7-2.8,3.3l0.1-0.2l-0.1-0.1c-0.5-0.3-0.9-0.7-1.4-1.2
				c-0.7-0.8-1.2-1.8-1.5-2.9C52.5,467.4,53.5,463.8,56.3,459.4L56.3,459.4 M47.7,452.5c0-0.6,0.2-1.1,0.6-1.5
				c0.4-0.4,0.9-0.6,1.5-0.6c0.6,0,1.1,0.2,1.5,0.6c0.4,0.4,0.6,0.9,0.6,1.5c0,0.6-0.2,1.1-0.6,1.5c-0.4,0.4-0.9,0.6-1.5,0.6
				c-0.6,0-1.1-0.2-1.5-0.6C47.9,453.6,47.7,453.1,47.7,452.5 M49.8,463.4c0.6,0,1.1,0.2,1.5,0.6c0.4,0.4,0.6,0.9,0.6,1.5
				c0,0.6-0.2,1.1-0.6,1.5c-0.4,0.4-0.9,0.6-1.5,0.6c-0.6,0-1.1-0.2-1.5-0.6c-0.4-0.4-0.6-0.9-0.6-1.5c0-0.6,0.2-1.1,0.6-1.5
				C48.7,463.6,49.2,463.4,49.8,463.4 M39.4,466.3c-0.4-0.4-0.6-0.8-0.6-1.3c0-0.5,0.2-0.9,0.6-1.3c0.3-0.4,0.8-0.6,1.3-0.6
				c0.5,0,0.9,0.2,1.3,0.6c0.4,0.3,0.6,0.8,0.6,1.3c0,0.5-0.2,0.9-0.6,1.3c-0.3,0.3-0.8,0.5-1.3,0.5
				C40.2,466.8,39.7,466.6,39.4,466.3 M51.1,461.4c-3.1,0.7-6.1-0.1-9-2.3c2.9-2.3,5.9-3.1,9-2.4c1.8,0.4,3.4,1.2,4.7,2.4
				C54.5,460.2,52.9,461,51.1,461.4 M56,441l0.2-0.1l0.3,0.1c0,0,1.3,0.9,3.7,2.7c2.9,2.4,5.6,5,8,8c7.7,9.6,11.6,20.7,11.6,33.4v61
				h0.5v-64.9c0-12.6-3.7-23.8-11.1-33.6c-4.1-5.4-8.4-9.5-13-12.3c-4.6,2.8-8.9,6.9-13,12.3c-7.4,9.7-11.1,20.9-11.1,33.6v64.9h0.5
				v-61c0-12.7,3.9-23.8,11.6-33.4c2.4-3,5.1-5.7,8-8C54.7,441.9,55.9,441.1,56,441 M60.2,432.9l-4-2.8l-4,2.8
				c-3.2,2.5-6.1,5.4-8.8,8.7c-8.5,10.5-12.8,22.8-12.8,36.8v67.6h0.5v-64.9c0-13.5,4.1-25.3,12.3-35.5c2.6-3.2,5.4-6,8.5-8.5
				c2.6-1.9,3.9-2.8,4-2.9l0.2,0.5l0.3-0.5c0,0,1.4,1,4,2.9c3.1,2.5,6,5.3,8.5,8.5c8.2,10.2,12.3,22,12.3,35.5v64.9h0.6v-67.6
				c0-14.1-4.3-26.3-12.8-36.8C66.3,438.4,63.4,435.5,60.2,432.9 M132.9,477.7h-9.5v68.4h9.5V477.7 M150.2,465.3
				c1.2-1.5,2.4-2.6,3.7-3.3l1.1,0.8c0.9,0.7,1.8,1.6,2.6,2.5c2.4,3,3.7,6.5,3.7,10.6v70.2h1.2v-73.3c0-4.7-1.4-8.8-4.3-12.3
				c-0.9-1.1-1.9-2-3-2.9l-1.3-1c-1.4,0.8-2.8,2.1-4.2,3.8c-2.8,3.5-4.3,7.6-4.3,12.3v73.3h1.2v-70.2
				C146.5,471.9,147.7,468.4,150.2,465.3 M153.8,467.1c-0.8,0.5-1.7,1.3-2.6,2.3c-1.7,2.1-2.6,4.5-2.6,7.3H159
				c0-2.8-0.9-5.3-2.6-7.3L153.8,467.1 M125.6,469.4c-1.7,2.1-2.6,4.5-2.6,7.3h10.2c0-2.8-0.9-5.3-2.6-7.3l-2.6-2.3L125.6,469.4
				 M124.6,451.7c1.4-1,2.5-1.6,3.5-1.8l1,0.3c0.8,0.3,1.7,0.8,2.5,1.4c2.7,2,5.2,5.1,7.3,9.2l-10.8-28.3l-10.7,28.3
				C119.5,456.8,121.9,453.8,124.6,451.7 M129.4,457.6l-1.3-1c-1.4,0.8-2.8,2.1-4.2,3.8c-2.8,3.5-4.3,7.6-4.3,12.3v73.3h1.2v-70.2
				c0-4,1.2-7.6,3.7-10.6c1.2-1.5,2.4-2.6,3.7-3.3l1.1,0.8c0.9,0.7,1.8,1.6,2.6,2.5c2.4,3,3.7,6.5,3.7,10.6v70.2h1.2v-73.3
				c0-4.7-1.4-8.8-4.3-12.3C131.5,459.4,130.5,458.5,129.4,457.6 M150.4,451.7c1.4-1,2.5-1.6,3.5-1.8l1,0.3c0.8,0.3,1.7,0.8,2.5,1.4
				c2.7,2,5.2,5.1,7.3,9.2l-10.8-28.3l-10.7,28.3C145.2,456.8,147.6,453.8,150.4,451.7 M153.8,451.4c-1.6,0.9-3.2,2.4-4.8,4.4
				c-3.2,4-4.9,8.6-4.9,14v76.4h0.6v-74.8c0-5,1.5-9.3,4.5-13.1c1.5-1.9,3-3.2,4.5-4.1l1.4,1c1.1,0.9,2.2,1.9,3.1,3.1
				c3,3.7,4.5,8.1,4.5,13.1v74.8h0.6v-76.4c0-5.3-1.6-10-4.9-14c-1-1.2-2.1-2.3-3.3-3.3L153.8,451.4 M133,455.8
				c-1-1.2-2.1-2.3-3.3-3.3l-1.5-1.1c-1.6,0.9-3.2,2.4-4.8,4.4c-3.2,4-4.9,8.6-4.9,14v76.4h0.6v-74.8c0-5,1.5-9.3,4.5-13.1
				c1.5-1.9,3-3.2,4.5-4.1l1.4,1c1.1,0.9,2.2,1.9,3.1,3.1c3,3.7,4.5,8.1,4.5,13.1v74.8h0.6v-76.4C137.8,464.4,136.2,459.7,133,455.8
				 M54.6,331.5L54.6,331.5l-0.2,0.2c-0.1,0.1-0.1,0.1-0.1,0.2c-0.1,0-0.2,0-0.2,0.1c-0.1,0.1-0.2,0.3-0.3,0.4c0,0.1,0,0.2,0,0.3
				c-0.1,0-0.2,0.1-0.2,0.2v0.1l0.1,0.5c0,0.1,0.1,0.1,0.2,0.2c0,0.1,0,0.2,0,0.3c0.1,0.2,0.2,0.3,0.3,0.4c0.1,0.1,0.1,0.1,0.2,0
				l0.1,0.2c0,0.1,0,0.1,0.1,0.1c-0.1,0.1-0.1,0.2-0.1,0.2v0.5c0,0.1,0,0.1,0.1,0.2c-0.1,0-0.1,0.1-0.1,0.2v0.4h-0.2
				c-0.1,0-0.2,0-0.2,0.1c0-0.1-0.1-0.1-0.2-0.1h-0.5c0,0,0-0.1-0.1-0.1l-0.4-0.2c-0.1,0-0.2,0-0.3,0.1c0-0.1-0.1-0.2-0.2-0.2
				c-0.2,0-0.3,0-0.5,0c-0.1,0-0.1,0.1-0.2,0.2c-0.1-0.1-0.2-0.1-0.3,0c-0.2,0.2-0.4,0.3-0.4,0.3c-0.1,0.1-0.1,0.1-0.1,0.2
				c-0.1,0-0.2,0-0.2,0.1l-0.2,0.4c0,0.1,0,0.2,0,0.3c-0.1,0-0.1,0.1-0.2,0.2l-0.1,0.5c0,0.1,0,0.2,0.1,0.2
				c-0.1,0.1-0.1,0.2-0.1,0.3l0.1,0.5c0,0.1,0.1,0.2,0.2,0.2c0,0.1,0,0.2,0,0.2l0.3,0.4c0.1,0.1,0.2,0.1,0.3,0.1
				c0,0.1,0,0.2,0.1,0.2l0.5,0.2c0.1,0,0.2,0,0.2-0.1c0.1,0.1,0.1,0.2,0.2,0.2h0.1l0.4-0.1c0.1,0,0.2-0.1,0.2-0.2
				c0.1,0.1,0.2,0.1,0.2,0l0.3-0.2h0.4c0.1,0,0.2,0,0.2-0.1c0.1,0.1,0.1,0.1,0.2,0.1h0.4l0.1,0.1c-0.1,0-0.1,0.1-0.1,0.2v0.4
				c0,0.1,0,0.1,0.1,0.2c-0.1,0-0.1,0.1-0.1,0.2v0.4c0,0.1,0,0.1,0.1,0.2c-0.1,0.1-0.1,0.2-0.1,0.2v0.4c0,0.1,0,0.2,0.1,0.2
				c-0.1,0-0.1,0.1-0.1,0.2h-1v5.5h5v-5.5h-1.3v-0.2c0-0.1,0-0.2-0.1-0.2c0.1-0.1,0.1-0.1,0.1-0.2v-0.4c0-0.1,0-0.2-0.1-0.2
				c0.1,0,0.1-0.1,0.1-0.2v-0.4c0-0.1,0-0.2-0.1-0.2c0.1,0,0.1-0.1,0.1-0.2v-0.4c0.1,0,0.2,0,0.2-0.1c0.1,0.1,0.1,0.1,0.2,0.1h0.4
				c0.1,0,0.2,0,0.2-0.1c0.1,0.1,0.1,0.1,0.2,0.1h0.2c0.1,0.1,0.1,0.2,0.1,0.2c0.1,0.1,0.3,0.2,0.5,0.2c0.1,0,0.2,0,0.2-0.1
				c0.1,0.1,0.1,0.2,0.2,0.2h0.1l0.4-0.1c0.1,0,0.2-0.1,0.2-0.2c0.1,0.1,0.2,0.1,0.2,0c0.1,0,0.2-0.1,0.4-0.3
				c0.1-0.1,0.1-0.2,0.1-0.3c0.1,0,0.2,0,0.2-0.1l0.2-0.4c0-0.1,0-0.1,0-0.2c0.1,0,0.2-0.1,0.2-0.2L62,338l0-0.2v-0.1l-0.1-0.5
				c0-0.1-0.1-0.1-0.2-0.2c0.1-0.1,0.1-0.2,0-0.3c0,0-0.1-0.2-0.3-0.4c-0.1-0.1-0.1-0.1-0.2-0.1c0-0.1,0-0.2-0.1-0.2l-0.4-0.2
				c-0.1,0-0.2,0-0.3,0.1c0-0.1-0.1-0.2-0.2-0.2c-0.2,0-0.3,0-0.5,0c-0.1,0-0.1,0.1-0.2,0.2c-0.1-0.1-0.2-0.1-0.3,0
				c-0.2,0.2-0.4,0.3-0.4,0.3l0,0c-0.1,0-0.2,0-0.2,0.1c0-0.1-0.1-0.1-0.2-0.1h-0.4c-0.1,0-0.2,0-0.2,0.1c-0.1-0.1-0.1-0.1-0.2-0.1
				h-0.1l-0.1-0.1c0.1-0.1,0.1-0.1,0.1-0.2v-0.4c0-0.1,0-0.2-0.1-0.2c0.1-0.1,0.1-0.1,0.1-0.2v-0.4l0-0.2c0.1,0,0.1,0,0.2-0.1
				l0.3-0.3c0.1-0.1,0.1-0.2,0-0.3c0.1,0,0.2-0.1,0.2-0.2c0.1-0.1,0.1-0.3,0.1-0.5c0-0.1,0-0.1-0.1-0.2l0-0.2c0-0.1-0.1-0.3-0.2-0.5
				c0-0.1-0.1-0.1-0.2-0.1c0-0.1,0-0.2-0.1-0.2l-0.3-0.2v-0.3c0-0.1,0.1-0.3,0.1-0.5l0-0.3c0-0.1-0.1-0.2-0.2-0.2
				c0.1-0.1,0.1-0.2,0-0.3c-0.1-0.2-0.2-0.3-0.3-0.4c-0.1-0.1-0.2-0.1-0.3-0.1c0-0.1-0.1-0.2-0.2-0.2c-0.1-0.1-0.3-0.1-0.5-0.1
				c-0.1,0-0.2,0.1-0.2,0.2c-0.1-0.1-0.2-0.1-0.3-0.1l-0.5,0.3c-0.1,0.1-0.1,0.2-0.1,0.3c-0.1,0-0.2,0-0.2,0.1l-0.2,0.5
				c0,0.1,0,0.2,0.1,0.3c-0.1,0-0.1,0.1-0.1,0.2L54.6,331.5L54.6,331.5 M-33.3,90.3c-0.3,0.4-0.5,0.9-0.5,1.4c0,0.6,0.2,1,0.5,1.4
				c0.3,0.4,0.8,0.6,1.3,0.6c0.4,0,0.8-0.2,1.1-0.5h1.5V99h0.4l-0.4,2.9h-0.8c-0.3,0-0.5,0.1-0.7,0.4c-0.2,0.3-0.3,0.7-0.3,1.1
				c0,0.4,0.1,0.8,0.3,1.1c0.2,0.3,0.4,0.4,0.7,0.4h0.5l-0.3,2.7h-1c-0.3,0-0.5,0.1-0.7,0.4c-0.2,0.3-0.3,0.6-0.3,1s0.1,0.8,0.3,1.1
				c0.2,0.3,0.4,0.4,0.7,0.4h0.6l-0.3,2.7h-1c-0.3,0-0.5,0.1-0.7,0.4c-0.2,0.3-0.3,0.7-0.3,1.1c0,0.4,0.1,0.8,0.3,1
				c0.2,0.3,0.4,0.4,0.7,0.4h0.6l-0.3,2.7h-1.1c-0.3,0-0.5,0.1-0.7,0.4c-0.2,0.3-0.3,0.7-0.3,1.1c0,0.4,0.1,0.8,0.3,1.1
				c0.2,0.3,0.5,0.4,0.7,0.4h0.7l-0.3,2.7h-1.2c-0.3,0-0.5,0.1-0.8,0.4c-0.2,0.3-0.3,0.6-0.3,1s0.1,0.8,0.3,1.1
				c0.2,0.3,0.5,0.4,0.8,0.4h0.8l-0.3,2.7H-34c-0.3,0-0.6,0.1-0.8,0.4c-0.2,0.3-0.3,0.7-0.3,1.1c0,0.4,0.1,0.8,0.3,1.1
				c0.2,0.3,0.5,0.4,0.8,0.4h0.9l-0.3,2.6h-1.4c-0.3,0-0.6,0.1-0.8,0.4c-0.2,0.3-0.3,0.7-0.3,1.1c0,0.4,0.1,0.8,0.3,1.1
				c0.2,0.3,0.5,0.4,0.8,0.4h1l-0.3,2.7h-1.4c-0.3,0-0.6,0.1-0.8,0.4c-0.2,0.3-0.3,0.7-0.3,1.1c0,0.4,0.1,0.8,0.3,1s0.5,0.4,0.8,0.4
				h1.1l-0.3,2.7h-1.5c-0.3,0-0.6,0.1-0.8,0.4c-0.2,0.3-0.3,0.7-0.3,1.1c0,0.4,0.1,0.8,0.3,1.1c0.2,0.3,0.5,0.4,0.8,0.4h1.2
				l-0.3,2.6h-1.6c-0.3,0-0.6,0.1-0.9,0.4c-0.2,0.3-0.3,0.7-0.3,1.1c0,0.4,0.1,0.8,0.3,1.1c0.2,0.3,0.5,0.4,0.9,0.4h1.3l-0.3,2.7
				h-1.7c-0.3,0-0.6,0.1-0.9,0.4c-0.2,0.3-0.4,0.7-0.4,1.1c0,0.4,0.1,0.8,0.4,1.1c0.2,0.3,0.5,0.4,0.9,0.4h1.4l-0.3,2.6h-1.8
				c-0.3,0-0.6,0.1-0.9,0.4c-0.2,0.3-0.4,0.7-0.4,1.1c0,0.4,0.1,0.8,0.4,1.1c0.2,0.3,0.5,0.4,0.9,0.4h1.4l-0.3,2.6h-1.9
				c-0.3,0-0.7,0.1-0.9,0.4c-0.2,0.3-0.4,0.7-0.4,1.1c0,0.4,0.1,0.8,0.4,1.1c0.3,0.3,0.6,0.4,0.9,0.4h1.5l-0.3,2.7h-1.9
				c-0.4,0-0.7,0.1-0.9,0.4c-0.3,0.3-0.4,0.7-0.4,1.1c0,0.4,0.1,0.8,0.4,1.1c0.2,0.3,0.6,0.4,0.9,0.4h1.6l-0.3,2.6H-41
				c-0.4,0-0.7,0.1-0.9,0.4c-0.3,0.3-0.4,0.7-0.4,1.1c0,0.4,0.1,0.8,0.4,1.1c0.2,0.3,0.6,0.4,0.9,0.4h1.7l-0.3,2.6h-2.1
				c-0.4,0-0.7,0.1-1,0.4c-0.3,0.3-0.4,0.7-0.4,1.1c0,0.4,0.1,0.8,0.4,1.1c0.3,0.3,0.6,0.4,1,0.4h1.8l-0.3,2.7h-2.2
				c-0.4,0-0.7,0.1-1,0.4c-0.3,0.3-0.4,0.7-0.4,1.1c0,0.4,0.1,0.8,0.4,1.1c0.3,0.3,0.6,0.4,1,0.4h1.8l-0.3,2.6h-2.3
				c-0.4,0-0.7,0.1-1,0.4c-0.3,0.3-0.4,0.7-0.4,1c0,0.4,0.1,0.8,0.4,1.1c0.3,0.3,0.6,0.4,1,0.4h1.9l-0.3,2.6h-2.4
				c-0.4,0-0.7,0.2-1,0.5c-0.3,0.3-0.4,0.6-0.4,1.1c0,0.4,0.1,0.8,0.4,1.1c0.3,0.3,0.6,0.4,1,0.4h2l-0.3,2.6h-2.5
				c-0.4,0-0.8,0.1-1,0.4c-0.3,0.3-0.4,0.7-0.4,1.1c0,0.4,0.1,0.8,0.4,1.1c0.3,0.3,0.6,0.4,1,0.4h2.1l-0.3,2.6h-2.6
				c-0.4,0-0.8,0.1-1,0.4c-0.3,0.3-0.4,0.7-0.4,1.1c0,0.4,0.1,0.8,0.4,1.1c0.3,0.3,0.6,0.4,1,0.4h2.2l-0.3,2.6h-2.6
				c-0.4,0-0.8,0.2-1.1,0.5c-0.3,0.3-0.4,0.6-0.4,1.1c0,0.4,0.1,0.8,0.4,1.1c0.3,0.3,0.7,0.4,1.1,0.4h2.3l-2.7,22.4l-5.9-23.4
				c0.5-0.6,0.7-1.4,0.7-2.3c0-0.8-0.2-1.5-0.6-2.1c-0.4-0.6-0.9-0.9-1.5-1l-0.1-0.5l-0.1-2.3l-0.2,2.8c-0.6,0.1-1.1,0.4-1.5,1
				c-0.4,0.6-0.6,1.3-0.6,2.2c0,0.8,0.2,1.4,0.5,2c0.3,0.6,0.8,0.9,1.3,1.1l-1.5,28.5l-0.9,1.4l-1.8-17.8l-1.7,19.5v21l-1.9-19
				l-2.9,33.8v52.8l-0.6,8.2l-0.2-0.5l-1.3-26.6l-1.3,26.8l-0.3,0.5l-0.9-9.8l-0.9,11.4v13.2l-1.7-15.3l-1.6,18.1v14.2l-0.1,0.8
				l-0.3-0.5l-1.3-26.6l-1.3,26.8l-0.3,0.5l-0.9-9.8l-0.9,11.4v23.2l-2-21.7l-1.8,24.1v21.9h-1.5v6.3h0.7v4.8h0.1v100.7h30.3v-84.9
				l2.2-5.6c-0.4,0.1-0.8-0.2-1.1-0.8l-0.1-0.4c-0.1-0.5-0.1-0.9,0.1-1.3c0.1-0.2,0.3-0.3,0.4-0.3c0.2-0.1,0.5,0,0.7,0.2
				c0.2,0.2,0.4,0.5,0.5,0.9v0.1l1-2.6c-0.2,0-0.5-0.1-0.7-0.3c-0.2-0.2-0.4-0.5-0.5-0.9c-0.1-0.4-0.1-0.8,0-1.1
				c0.1-0.3,0.3-0.5,0.6-0.6c0.2-0.1,0.5,0,0.7,0.2c0.2,0.2,0.4,0.5,0.5,0.9l1-2.5c-0.2,0-0.4-0.1-0.6-0.3s-0.3-0.5-0.4-0.9
				c-0.1-0.4-0.1-0.7,0-1c0.1-0.3,0.3-0.5,0.5-0.6c0.2-0.1,0.5,0,0.7,0.2c0.2,0.2,0.4,0.5,0.5,0.9l1-2.5c-0.2,0-0.3-0.1-0.5-0.2
				c-0.2-0.2-0.4-0.5-0.6-1c-0.1-0.4-0.1-0.7,0-1c0.1-0.3,0.3-0.5,0.5-0.6c0.2-0.1,0.5,0,0.7,0.2c0.2,0.2,0.4,0.5,0.5,0.8l0.9-2.4
				c-0.2,0-0.4-0.2-0.6-0.4c-0.2-0.2-0.3-0.5-0.4-0.8c-0.1-0.4-0.1-0.8,0-1.1c0.1-0.3,0.3-0.5,0.6-0.6c0.2,0,0.4,0,0.6,0.2
				c0.2,0.2,0.4,0.4,0.5,0.7l0.9-2.3c-0.5-0.1-0.8-0.5-1-1.2c-0.1-0.4-0.1-0.7,0-1c0.1-0.3,0.3-0.5,0.5-0.6c0.2-0.1,0.4,0,0.6,0.2
				c0.2,0.2,0.4,0.4,0.5,0.7l0.2-0.4v-5.4c0-0.4,0.1-0.7,0.4-1c0.3-0.3,0.6-0.4,1-0.4s0.7,0.1,1,0.4c0.3,0.3,0.4,0.6,0.4,1v5.4
				l0.2,0.4c0.1-0.3,0.3-0.5,0.5-0.7c0.2-0.2,0.4-0.2,0.6-0.2c0.3,0.1,0.5,0.3,0.6,0.6c0.1,0.3,0.1,0.7,0,1c-0.2,0.7-0.5,1.1-1,1.2
				l0.9,2.4c0.1-0.3,0.3-0.6,0.5-0.8c0.2-0.2,0.5-0.3,0.7-0.2c0.2,0.1,0.4,0.3,0.5,0.6c0.1,0.3,0.1,0.7,0,1.1
				c-0.2,0.7-0.5,1.1-1,1.2l1,2.4c0.1-0.3,0.3-0.6,0.5-0.8c0.2-0.2,0.5-0.3,0.7-0.2c0.2,0.1,0.4,0.3,0.5,0.6c0.1,0.3,0.1,0.7,0,1
				c-0.1,0.3-0.2,0.6-0.4,0.8c-0.2,0.2-0.4,0.3-0.6,0.4l1,2.5c0.1-0.3,0.3-0.6,0.5-0.9c0.2-0.2,0.5-0.3,0.7-0.2
				c0.3,0.1,0.5,0.3,0.6,0.6c0.1,0.3,0.1,0.7,0,1c-0.1,0.3-0.2,0.6-0.5,0.9c-0.2,0.2-0.4,0.3-0.6,0.3l1,2.5c0.1-0.4,0.3-0.7,0.5-0.9
				c0.2-0.2,0.5-0.3,0.7-0.2c0.2,0.1,0.4,0.3,0.5,0.6c0.1,0.3,0.1,0.7,0,1.1c-0.1,0.3-0.2,0.6-0.5,0.9c-0.2,0.2-0.5,0.3-0.7,0.3
				l1,2.6l0-0.1c0.1-0.4,0.3-0.7,0.5-0.9c0.2-0.2,0.5-0.3,0.7-0.2c0.2,0.1,0.4,0.3,0.5,0.6c0.1,0.3,0.1,0.7,0,1
				c-0.1,0.4-0.2,0.7-0.5,0.9c-0.2,0.2-0.5,0.3-0.7,0.3l2.2,5.6v60.9h0.5v-60.9l2.2-5.6c-0.2,0-0.5-0.1-0.7-0.3
				c-0.2-0.2-0.4-0.5-0.5-0.9c-0.1-0.4-0.1-0.7,0-1c0.1-0.3,0.3-0.5,0.5-0.6s0.5,0,0.7,0.2c0.2,0.2,0.4,0.5,0.5,0.9v0.1l1-2.6
				c-0.2,0-0.5-0.1-0.7-0.3c-0.2-0.2-0.4-0.5-0.5-0.9c-0.1-0.4-0.1-0.7,0-1.1s0.3-0.5,0.5-0.6c0.2-0.1,0.5,0,0.7,0.2
				c0.2,0.2,0.4,0.5,0.5,0.9l1-2.5c-0.2,0-0.4-0.1-0.6-0.3c-0.2-0.2-0.4-0.5-0.5-0.9c-0.1-0.4-0.1-0.7,0-1c0.1-0.3,0.3-0.5,0.5-0.6
				c0.2-0.1,0.5,0,0.7,0.2c0.2,0.2,0.4,0.5,0.5,0.9l1-2.5c-0.5,0-0.8-0.4-1-1.2c-0.1-0.4-0.1-0.7,0-1c0.1-0.3,0.3-0.5,0.5-0.6
				c0.2-0.1,0.5,0,0.7,0.2c0.2,0.2,0.4,0.5,0.5,0.8l0.9-2.4c-0.2,0-0.4-0.2-0.6-0.4c-0.2-0.2-0.3-0.5-0.4-0.8
				c-0.1-0.4-0.1-0.8,0-1.1c0.1-0.3,0.3-0.5,0.6-0.6c0.2,0,0.4,0,0.6,0.2c0.2,0.2,0.4,0.4,0.5,0.7l0.9-2.3c-0.5-0.1-0.8-0.5-1-1.2
				c-0.1-0.4-0.1-0.7,0-1c0.1-0.3,0.3-0.5,0.5-0.6c0.2-0.1,0.4,0,0.6,0.2c0.2,0.2,0.4,0.4,0.5,0.7l0.2-0.4v-5.4c0-0.4,0.1-0.7,0.4-1
				c0.3-0.3,0.6-0.4,1-0.4c0.4,0,0.7,0.1,1,0.4c0.3,0.3,0.4,0.6,0.4,1v5.4l0.2,0.4c0.1-0.3,0.3-0.5,0.5-0.7c0.2-0.2,0.4-0.2,0.6-0.2
				c0.2,0.1,0.4,0.3,0.5,0.6c0.1,0.3,0.1,0.7,0,1c-0.2,0.7-0.5,1.1-1,1.2l0.9,2.4c0.1-0.3,0.3-0.6,0.5-0.8c0.2-0.2,0.4-0.3,0.6-0.2
				c0.2,0.1,0.4,0.3,0.5,0.6c0.1,0.3,0.1,0.7,0,1.1c-0.2,0.7-0.5,1.1-1,1.2l1,2.4c0.1-0.3,0.3-0.6,0.5-0.8c0.2-0.2,0.5-0.3,0.7-0.2
				c0.2,0,0.3,0.1,0.4,0.3c0.2,0.3,0.3,0.8,0.1,1.3l-0.1,0.4c-0.2,0.5-0.5,0.8-0.9,0.8l0.9,2.4l0.1,0.1c0.1-0.3,0.3-0.6,0.5-0.9
				c0.2-0.2,0.5-0.3,0.7-0.2c0.2,0.1,0.4,0.3,0.5,0.6c0.1,0.3,0.1,0.7,0,1c-0.1,0.3-0.2,0.6-0.5,0.9c-0.2,0.2-0.4,0.3-0.6,0.3l1,2.5
				c0.1-0.4,0.3-0.7,0.5-0.9c0.2-0.2,0.5-0.3,0.7-0.2c0.2,0.1,0.4,0.3,0.5,0.6c0.1,0.3,0.1,0.7,0,1.1c-0.1,0.3-0.2,0.6-0.5,0.9
				c-0.2,0.2-0.5,0.3-0.7,0.3l1,2.6v-0.1c0.1-0.4,0.3-0.7,0.5-0.9c0.2-0.2,0.5-0.3,0.7-0.2l0.2,0.2c0.3,0.3,0.4,0.8,0.3,1.5
				c-0.1,0.2-0.2,0.5-0.3,0.6c-0.3,0.4-0.6,0.6-0.9,0.6l2.2,5.6v84.9h31.7v-71.3c0-14.8,4.5-27.8,13.5-38.8c2.8-3.5,5.9-6.5,9.3-9.2
				l4.2-3l4.2,3c3.4,2.7,6.5,5.7,9.3,9.2c9,11.1,13.5,24,13.5,38.8v71.3h32.3v-84.9l2.2-5.6c-0.4,0.1-0.8-0.2-1.1-0.8l-0.1-0.4
				c-0.1-0.5-0.1-0.9,0.1-1.3c0.1-0.2,0.3-0.3,0.4-0.3c0.2-0.1,0.5,0,0.7,0.2s0.4,0.5,0.5,0.9v0.1l1-2.6c-0.2,0-0.5-0.1-0.7-0.3
				c-0.2-0.2-0.4-0.5-0.5-0.9c-0.1-0.4-0.1-0.8,0-1.1c0.1-0.3,0.3-0.5,0.6-0.6c0.2-0.1,0.5,0,0.7,0.2c0.2,0.2,0.4,0.5,0.5,0.9l1-2.5
				c-0.2,0-0.4-0.1-0.6-0.3c-0.2-0.2-0.3-0.5-0.4-0.9c-0.1-0.4-0.1-0.7,0-1c0.1-0.3,0.3-0.5,0.5-0.6c0.2-0.1,0.5,0,0.7,0.2
				c0.2,0.2,0.4,0.5,0.5,0.9l1-2.5c-0.2,0-0.3-0.1-0.5-0.2c-0.2-0.2-0.4-0.5-0.6-1c-0.1-0.4-0.1-0.7,0-1c0.1-0.3,0.3-0.5,0.5-0.6
				c0.2-0.1,0.5,0,0.7,0.2c0.2,0.2,0.4,0.5,0.5,0.8l0.9-2.4c-0.2,0-0.4-0.2-0.6-0.4c-0.2-0.2-0.3-0.5-0.4-0.8
				c-0.1-0.4-0.1-0.8,0-1.1c0.1-0.3,0.3-0.5,0.6-0.6c0.2,0,0.4,0,0.6,0.2c0.2,0.2,0.4,0.4,0.5,0.7l0.9-2.3c-0.5-0.1-0.8-0.5-1-1.2
				c-0.1-0.4-0.1-0.7,0-1c0.1-0.3,0.3-0.5,0.5-0.6c0.2-0.1,0.4,0,0.6,0.2c0.2,0.2,0.4,0.4,0.5,0.7l0.2-0.4v-5.4c0-0.4,0.1-0.7,0.4-1
				c0.3-0.3,0.6-0.4,1-0.4c0.4,0,0.7,0.1,1,0.4c0.3,0.3,0.4,0.6,0.4,1v5.4l0.2,0.4c0.1-0.3,0.3-0.5,0.5-0.7c0.2-0.2,0.4-0.2,0.6-0.2
				c0.3,0.1,0.5,0.3,0.6,0.6c0.1,0.3,0.1,0.7,0,1c-0.2,0.7-0.5,1.1-1,1.2l0.9,2.4c0.1-0.3,0.3-0.6,0.5-0.8c0.2-0.2,0.5-0.3,0.7-0.2
				c0.2,0.1,0.4,0.3,0.5,0.6c0.1,0.3,0.1,0.7,0,1.1c-0.2,0.7-0.5,1.1-1,1.2l1,2.4c0.1-0.3,0.3-0.6,0.5-0.8c0.2-0.2,0.5-0.3,0.7-0.2
				c0.2,0.1,0.4,0.3,0.5,0.6c0.1,0.3,0.1,0.7,0,1c-0.1,0.3-0.2,0.6-0.4,0.8c-0.2,0.2-0.4,0.3-0.6,0.4l1,2.5c0.1-0.3,0.3-0.6,0.5-0.9
				c0.2-0.2,0.5-0.3,0.7-0.2c0.3,0.1,0.5,0.3,0.6,0.6c0.1,0.3,0.1,0.7,0,1c-0.1,0.3-0.2,0.6-0.5,0.9c-0.2,0.2-0.4,0.3-0.6,0.3l1,2.5
				c0.1-0.4,0.3-0.7,0.5-0.9c0.2-0.2,0.5-0.3,0.7-0.2c0.2,0.1,0.4,0.3,0.5,0.6c0.1,0.3,0.1,0.7,0,1.1c-0.1,0.3-0.2,0.6-0.5,0.9
				c-0.2,0.2-0.5,0.3-0.7,0.3l1,2.6l0-0.1c0.1-0.4,0.3-0.7,0.5-0.9c0.2-0.2,0.5-0.3,0.7-0.2s0.4,0.3,0.5,0.6c0.1,0.3,0.1,0.7,0,1
				c-0.1,0.4-0.2,0.7-0.5,0.9c-0.2,0.2-0.5,0.3-0.7,0.3l2.2,5.6v60.9h0.5v-60.9l2.2-5.6c-0.2,0-0.5-0.1-0.7-0.3
				c-0.2-0.2-0.4-0.5-0.5-0.9c-0.1-0.4-0.1-0.7,0-1c0.1-0.3,0.3-0.5,0.5-0.6s0.5,0,0.7,0.2c0.2,0.2,0.4,0.5,0.5,0.9v0.1l1-2.6
				c-0.2,0-0.5-0.1-0.7-0.3c-0.2-0.2-0.4-0.5-0.5-0.9c-0.1-0.4-0.1-0.7,0-1.1c0.1-0.3,0.3-0.5,0.5-0.6c0.2-0.1,0.5,0,0.7,0.2
				c0.2,0.2,0.4,0.5,0.5,0.9l1-2.5c-0.2,0-0.4-0.1-0.6-0.3c-0.2-0.2-0.4-0.5-0.5-0.9c-0.1-0.4-0.1-0.7,0-1c0.1-0.3,0.3-0.5,0.5-0.6
				c0.2-0.1,0.5,0,0.7,0.2c0.2,0.2,0.4,0.5,0.5,0.9l1-2.5c-0.2,0-0.4-0.1-0.6-0.4c-0.2-0.2-0.3-0.5-0.4-0.8c-0.1-0.4-0.1-0.7,0-1
				c0.1-0.3,0.3-0.5,0.5-0.6c0.2-0.1,0.5,0,0.7,0.2c0.2,0.2,0.4,0.5,0.5,0.8l0.9-2.4c-0.2,0-0.4-0.2-0.6-0.4
				c-0.2-0.2-0.3-0.5-0.4-0.8c-0.1-0.4-0.1-0.8,0-1.1c0.1-0.3,0.3-0.5,0.6-0.6c0.2,0,0.4,0,0.6,0.2c0.2,0.2,0.4,0.4,0.5,0.7l0.9-2.3
				c-0.5-0.1-0.8-0.5-1-1.2c-0.1-0.4-0.1-0.7,0-1c0.1-0.3,0.3-0.5,0.5-0.6c0.2-0.1,0.4,0,0.6,0.2c0.2,0.2,0.4,0.4,0.5,0.7l0.2-0.4
				v-5.4c0-0.4,0.1-0.7,0.4-1c0.3-0.3,0.6-0.4,1-0.4c0.4,0,0.7,0.1,1,0.4c0.3,0.3,0.4,0.6,0.4,1v5.4l0.2,0.4
				c0.1-0.3,0.3-0.5,0.5-0.7c0.2-0.2,0.4-0.2,0.6-0.2c0.2,0.1,0.4,0.3,0.5,0.6c0.1,0.3,0.1,0.7,0,1c-0.2,0.7-0.5,1.1-1,1.2l0.9,2.4
				c0.1-0.3,0.3-0.6,0.5-0.8c0.2-0.2,0.4-0.3,0.6-0.2c0.2,0.1,0.4,0.3,0.5,0.6c0.1,0.3,0.1,0.7,0,1.1c-0.2,0.7-0.5,1.1-1,1.2l1,2.4
				c0.1-0.3,0.3-0.6,0.5-0.8c0.2-0.2,0.5-0.3,0.7-0.2c0.2,0,0.3,0.1,0.4,0.3c0.2,0.3,0.3,0.8,0.1,1.3l-0.1,0.4
				c-0.2,0.5-0.5,0.8-0.9,0.8l0.9,2.4l0.1,0.1c0.1-0.3,0.3-0.6,0.5-0.9c0.2-0.2,0.5-0.3,0.7-0.2c0.2,0.1,0.4,0.3,0.5,0.6
				c0.1,0.3,0.1,0.7,0,1c-0.1,0.3-0.2,0.6-0.5,0.9c-0.2,0.2-0.4,0.3-0.6,0.3l1,2.5c0.1-0.4,0.3-0.7,0.5-0.9c0.2-0.2,0.5-0.3,0.7-0.2
				c0.2,0.1,0.4,0.3,0.5,0.6c0.1,0.3,0.1,0.7,0,1.1c-0.1,0.3-0.2,0.6-0.5,0.9c-0.2,0.2-0.5,0.3-0.7,0.3l1,2.6v-0.1
				c0.1-0.4,0.3-0.7,0.5-0.9c0.2-0.2,0.5-0.3,0.7-0.2l0.2,0.2c0.3,0.3,0.4,0.8,0.3,1.5c-0.1,0.2-0.2,0.5-0.3,0.6
				c-0.3,0.4-0.6,0.6-0.9,0.6l2.2,5.6v84.9h30.1V445.4h0.1v-4.8h0.7v-6.3h-1.5v-21.9l-1.8-24.1l-2,21.7v-23.2l-1-11.4l-0.7,9.6
				l-0.3-0.5l-1.3-26.6l-0.9,19.5V370l-1.6-18.1l-1.7,15.7v-13.7l-1-11.4l-0.7,9.6l-0.2-0.5l-1.3-26.6l-1.3,26.8l-0.3,0.5l-0.6-6.1
				v-55.1l-2.9-33.8l-1.9,19v-21l-1.7-19.5l-1.8,17.8l-0.9-1.4l-1.5-28.5c0.6-0.2,1-0.5,1.4-1.1c0.3-0.6,0.5-1.3,0.5-2
				c0-0.8-0.2-1.5-0.6-2.2c-0.4-0.6-0.9-0.9-1.5-1l-0.2-2.8l-0.2,2.8l-0.1,0V217l-0.1,0.5c-0.6,0.1-1,0.5-1.4,1.1
				c-0.4,0.6-0.6,1.3-0.6,2c0,0.8,0.2,1.5,0.6,2.1l-6,23.6l-2.8-22.4h1.5c0.4,0,0.8-0.1,1.1-0.4c0.3-0.3,0.4-0.7,0.4-1.1
				c0-0.4-0.1-0.8-0.4-1.1c-0.3-0.3-0.7-0.5-1.1-0.5h-1.9l-0.3-2.6h1.4c0.4,0,0.8-0.1,1-0.4c0.3-0.3,0.4-0.7,0.4-1.1
				c0-0.4-0.1-0.8-0.4-1.1c-0.3-0.3-0.6-0.4-1-0.4h-1.8l-0.3-2.6h1.4c0.4,0,0.7-0.1,1-0.4c0.3-0.3,0.4-0.7,0.4-1.1
				c0-0.4-0.1-0.8-0.4-1.1c-0.3-0.3-0.6-0.4-1-0.4h-1.8l-0.3-2.6h1.3c0.4,0,0.7-0.1,1-0.4c0.3-0.3,0.4-0.7,0.4-1.1
				c0-0.4-0.1-0.8-0.4-1.1c-0.3-0.3-0.6-0.5-1-0.5H155l-0.3-2.6h1.2c0.4,0,0.7-0.1,1-0.4c0.3-0.3,0.4-0.7,0.4-1.1
				c0-0.4-0.1-0.8-0.4-1c-0.3-0.3-0.6-0.4-1-0.4h-1.6l-0.3-2.6h1.2c0.4,0,0.7-0.1,1-0.4c0.3-0.3,0.4-0.7,0.4-1.1
				c0-0.4-0.1-0.8-0.4-1.1c-0.3-0.3-0.6-0.4-1-0.4h-1.5l-0.3-2.7h1.1c0.4,0,0.7-0.1,1-0.4c0.3-0.3,0.4-0.6,0.4-1.1
				c0-0.4-0.1-0.8-0.4-1.1c-0.3-0.3-0.6-0.4-1-0.4h-1.5l-0.3-2.6h1c0.4,0,0.7-0.1,1-0.4c0.2-0.3,0.4-0.7,0.4-1.1
				c0-0.4-0.1-0.8-0.4-1.1c-0.3-0.3-0.6-0.4-1-0.4h-1.4l-0.3-2.6h1c0.3,0,0.7-0.1,0.9-0.4c0.2-0.3,0.4-0.7,0.4-1.1
				c0-0.4-0.1-0.8-0.4-1.1c-0.3-0.3-0.6-0.4-0.9-0.4h-1.4l-0.3-2.7h1c0.3,0,0.6-0.1,0.9-0.4c0.2-0.3,0.4-0.7,0.4-1.1
				c0-0.4-0.1-0.8-0.4-1.1c-0.2-0.3-0.5-0.4-0.9-0.4h-1.3l-0.3-2.6h0.9c0.3,0,0.6-0.1,0.9-0.4c0.2-0.3,0.4-0.7,0.4-1.1
				c0-0.4-0.1-0.8-0.4-1.1c-0.2-0.3-0.5-0.4-0.9-0.4h-1.2l-0.3-2.6h0.8c0.3,0,0.6-0.1,0.9-0.4c0.2-0.3,0.4-0.7,0.4-1.1
				c0-0.4-0.1-0.8-0.4-1.1c-0.2-0.3-0.5-0.4-0.9-0.4h-1.2l-0.3-2.7h0.7c0.3,0,0.6-0.1,0.9-0.4c0.2-0.3,0.3-0.7,0.3-1.1
				c0-0.4-0.1-0.8-0.3-1.1c-0.2-0.3-0.5-0.4-0.9-0.4h-1.1l-0.3-2.6h0.7c0.3,0,0.6-0.1,0.8-0.4c0.2-0.3,0.3-0.7,0.3-1.1
				c0-0.4-0.1-0.8-0.3-1.1c-0.2-0.3-0.5-0.4-0.8-0.4h-1l-0.3-2.7h0.6c0.3,0,0.6-0.1,0.8-0.4c0.2-0.3,0.3-0.6,0.3-1
				c0-0.4-0.1-0.8-0.3-1.1c-0.2-0.3-0.5-0.4-0.8-0.4h-1l-0.3-2.7h0.6c0.3,0,0.6-0.1,0.8-0.4c0.2-0.3,0.3-0.7,0.3-1.1
				c0-0.4-0.1-0.8-0.3-1.1c-0.2-0.3-0.5-0.4-0.8-0.4h-0.9l-0.3-2.6h0.5c0.3,0,0.6-0.1,0.8-0.4c0.2-0.3,0.3-0.7,0.3-1.1
				c0-0.4-0.1-0.8-0.3-1.1c-0.2-0.3-0.5-0.4-0.8-0.4h-0.8l-0.3-2.7h0.4c0.3,0,0.6-0.1,0.8-0.4c0.2-0.3,0.3-0.7,0.3-1.1
				s-0.1-0.8-0.3-1c-0.2-0.3-0.5-0.4-0.8-0.4h-0.8l-0.3-2.7h0.3c0.3,0,0.5-0.1,0.8-0.4c0.2-0.3,0.3-0.7,0.3-1.1
				c0-0.4-0.1-0.8-0.3-1.1c-0.2-0.3-0.5-0.4-0.8-0.4h-0.7l-0.3-2.7h0.3c0.3,0,0.5-0.1,0.7-0.4s0.3-0.6,0.3-1c0-0.4-0.1-0.8-0.3-1.1
				c-0.2-0.3-0.5-0.4-0.7-0.4h-0.6l-0.3-2.7h0.2c0.3,0,0.5-0.1,0.7-0.4c0.2-0.3,0.3-0.7,0.3-1.1s-0.1-0.8-0.3-1
				c-0.2-0.3-0.4-0.4-0.7-0.4H143l-0.3-2.7h0.2c0.3,0,0.5-0.1,0.7-0.4c0.2-0.3,0.3-0.7,0.3-1.1c0-0.4-0.1-0.8-0.3-1.1
				c-0.2-0.3-0.4-0.4-0.7-0.4h-0.6l-0.5-4.3v-4.3h1.7c0.3,0.3,0.7,0.5,1.1,0.5c0.5,0,0.9-0.2,1.3-0.6c0.3-0.4,0.5-0.9,0.5-1.4
				c0-0.6-0.2-1-0.5-1.4c-0.3-0.4-0.8-0.6-1.3-0.6c-0.4,0-0.8,0.2-1.1,0.5h-1.7v-2.2c0.6-0.3,0.8-0.7,0.8-1.3c0-0.5-0.3-1-0.8-1.3
				V85l0.1-0.4c0-0.4-0.1-0.7-0.4-1c-0.2-0.3-0.5-0.4-0.9-0.4c-0.3,0-0.6,0.1-0.8,0.4c-0.2,0.3-0.4,0.6-0.4,1c0,0.2,0.1,0.4,0.2,0.7
				v0.2c-0.6,0.3-0.9,0.7-0.9,1.3c0,0.6,0.3,1,0.9,1.3v2.1H138c-0.3-0.3-0.7-0.5-1.1-0.5c-0.5,0-0.9,0.2-1.3,0.6
				c-0.3,0.4-0.5,0.9-0.5,1.4c0,0.6,0.2,1,0.5,1.4c0.3,0.4,0.8,0.6,1.3,0.6c0.4,0,0.8-0.2,1.1-0.5h1.5V99h0.4l-0.4,2.9h-0.8
				c-0.3,0-0.5,0.1-0.7,0.4c-0.2,0.3-0.3,0.7-0.3,1.1c0,0.4,0.1,0.8,0.3,1.1c0.2,0.3,0.4,0.4,0.7,0.4h0.5l-0.3,2.7h-1
				c-0.3,0-0.5,0.1-0.7,0.4c-0.2,0.3-0.3,0.6-0.3,1s0.1,0.8,0.3,1.1c0.2,0.3,0.4,0.4,0.7,0.4h0.6l-0.3,2.7h-1
				c-0.3,0-0.5,0.1-0.7,0.4c-0.2,0.3-0.3,0.7-0.3,1.1c0,0.4,0.1,0.8,0.3,1c0.2,0.3,0.4,0.4,0.7,0.4h0.6l-0.3,2.7h-1.1
				c-0.3,0-0.5,0.1-0.7,0.4c-0.2,0.3-0.3,0.7-0.3,1.1c0,0.4,0.1,0.8,0.3,1.1c0.2,0.3,0.5,0.4,0.7,0.4h0.7l-0.3,2.7h-1.2
				c-0.3,0-0.5,0.1-0.8,0.4c-0.2,0.3-0.3,0.6-0.3,1s0.1,0.8,0.3,1.1c0.2,0.3,0.5,0.4,0.8,0.4h0.8l-0.3,2.7h-1.3
				c-0.3,0-0.6,0.1-0.8,0.4c-0.2,0.3-0.3,0.7-0.3,1.1c0,0.4,0.1,0.8,0.3,1.1c0.2,0.3,0.5,0.4,0.8,0.4h0.9l-0.3,2.6h-1.3
				c-0.3,0-0.6,0.1-0.8,0.4c-0.2,0.3-0.3,0.7-0.3,1.1c0,0.4,0.1,0.8,0.3,1.1c0.2,0.3,0.5,0.4,0.8,0.4h1l-0.3,2.7h-1.4
				c-0.3,0-0.6,0.1-0.8,0.4c-0.2,0.3-0.3,0.7-0.3,1.1c0,0.4,0.1,0.8,0.3,1c0.2,0.3,0.5,0.4,0.8,0.4h1.1l-0.3,2.7h-1.5
				c-0.3,0-0.6,0.1-0.8,0.4c-0.2,0.3-0.3,0.7-0.3,1.1c0,0.4,0.1,0.8,0.3,1.1c0.2,0.3,0.5,0.4,0.8,0.4h1.2l-0.3,2.6h-1.6
				c-0.3,0-0.6,0.1-0.9,0.4c-0.2,0.3-0.3,0.7-0.3,1.1c0,0.4,0.1,0.8,0.3,1.1c0.2,0.3,0.5,0.4,0.9,0.4h1.2l-0.3,2.7H131
				c-0.3,0-0.6,0.1-0.9,0.4c-0.2,0.3-0.4,0.7-0.4,1.1c0,0.4,0.1,0.8,0.4,1.1c0.2,0.3,0.5,0.4,0.9,0.4h1.3l-0.3,2.6h-1.8
				c-0.3,0-0.6,0.1-0.9,0.4c-0.2,0.3-0.4,0.7-0.4,1.1c0,0.4,0.1,0.8,0.4,1.1c0.2,0.3,0.5,0.4,0.9,0.4h1.4l-0.3,2.6h-1.8
				c-0.3,0-0.7,0.1-0.9,0.4c-0.2,0.3-0.4,0.7-0.4,1.1c0,0.4,0.1,0.8,0.4,1.1c0.3,0.3,0.6,0.4,0.9,0.4h1.5l-0.3,2.7h-1.9
				c-0.4,0-0.7,0.1-0.9,0.4c-0.3,0.3-0.4,0.7-0.4,1.1c0,0.4,0.1,0.8,0.4,1.1c0.2,0.3,0.6,0.4,0.9,0.4h1.5l-0.3,2.6h-2
				c-0.4,0-0.7,0.1-0.9,0.4c-0.3,0.3-0.4,0.7-0.4,1.1c0,0.4,0.1,0.8,0.4,1.1c0.2,0.3,0.6,0.4,0.9,0.4h1.7l-0.3,2.6h-2.1
				c-0.4,0-0.7,0.1-1,0.4c-0.3,0.3-0.4,0.7-0.4,1.1c0,0.4,0.1,0.8,0.4,1.1s0.6,0.4,1,0.4h1.7l-0.3,2.7h-2.2c-0.4,0-0.7,0.1-1,0.4
				c-0.3,0.3-0.4,0.7-0.4,1.1c0,0.4,0.1,0.8,0.4,1.1c0.3,0.3,0.6,0.4,1,0.4h1.8l-0.3,2.6h-2.2c-0.4,0-0.7,0.1-1,0.4
				c-0.3,0.3-0.4,0.7-0.4,1c0,0.4,0.1,0.8,0.4,1.1c0.3,0.3,0.6,0.4,1,0.4h1.9l-0.3,2.6h-2.3c-0.4,0-0.7,0.2-1,0.5
				c-0.3,0.3-0.4,0.6-0.4,1.1c0,0.4,0.1,0.8,0.4,1.1c0.3,0.3,0.6,0.4,1,0.4h2l-0.3,2.6h-2.4c-0.4,0-0.8,0.1-1,0.4
				c-0.3,0.3-0.4,0.7-0.4,1.1c0,0.4,0.1,0.8,0.4,1.1c0.3,0.3,0.6,0.4,1,0.4h2.1l-0.3,2.6h-2.5c-0.4,0-0.8,0.1-1,0.4
				c-0.3,0.3-0.4,0.7-0.4,1.1c0,0.4,0.1,0.8,0.4,1.1c0.3,0.3,0.6,0.4,1,0.4h2.2l-0.3,2.6h-2.6c-0.4,0-0.8,0.2-1.1,0.5
				c-0.3,0.3-0.4,0.6-0.4,1.1c0,0.4,0.1,0.8,0.4,1.1c0.3,0.3,0.7,0.4,1.1,0.4h2.3l-2.7,22.4l-5.9-23.4c0.5-0.6,0.7-1.4,0.7-2.3
				c0-0.8-0.2-1.5-0.6-2.1c-0.4-0.6-0.9-0.9-1.5-1l-0.1-0.5l-0.1-2.3l-0.2,2.8c-0.6,0.1-1.1,0.4-1.5,1c-0.4,0.6-0.6,1.3-0.6,2.2
				c0,0.8,0.2,1.4,0.5,2c0.3,0.6,0.8,0.9,1.3,1.1l-1.5,28.5l-0.9,1.4l-1.8-17.8l-1.7,19.5v21l-1.9-19l-2.9,33.8v52.8l-0.4,5.5h-0.6
				l-1.2-24.4l-1.1,24.4h-0.7l-0.6-6.9l-0.5,6.9H58.2l1.6,4v0c0.1-0.1,0.1-0.2,0.2-0.2c0-0.1,0-0.2,0-0.3l0.3-0.4
				c0.1-0.1,0.2-0.1,0.3-0.1c0-0.1,0-0.2,0.1-0.3l0.4-0.3c0.1-0.1,0.2-0.1,0.3,0c0-0.1,0.1-0.2,0.2-0.2c0.2-0.1,0.4-0.1,0.6-0.1
				c0.1,0,0.2,0.1,0.3,0.2c0.1-0.1,0.2-0.1,0.3-0.1c0.2,0.1,0.4,0.2,0.6,0.3c0.1,0.1,0.2,0.2,0.1,0.3c0.1,0,0.2,0,0.3,0.1
				c0.2,0.3,0.3,0.5,0.3,0.5c0.1,0.1,0.1,0.2,0,0.3c0.1,0,0.2,0.1,0.2,0.2l0.1,0.6c0,0.1,0,0.2-0.1,0.3c0.1,0,0.2,0.1,0.2,0.2v0.5
				c0,0.1-0.1,0.2-0.2,0.2c0.1,0.1,0.1,0.2,0.1,0.3l-0.1,0.5c0,0.1-0.1,0.2-0.2,0.2c0.1,0.1,0.1,0.2,0,0.3l-0.2,0.5
				c-0.1,0.1-0.1,0.2-0.2,0.2c0,0.1,0,0.2,0,0.3l-0.3,0.4c-0.1,0.1-0.2,0.1-0.3,0.1c0,0.1,0,0.2-0.1,0.3l-0.4,0.3
				c-0.1,0.1-0.2,0.1-0.3,0c0,0.1-0.1,0.2-0.2,0.2l-0.2,0.1l1.9,4.9l0.1-0.2c0-0.1,0.1-0.1,0.2-0.2c0-0.1,0-0.2,0-0.3l0.3-0.5
				c0.1-0.1,0.2-0.1,0.3-0.1c0-0.1,0-0.2,0.1-0.3l0.4-0.3c0.1-0.1,0.2-0.1,0.3,0c0-0.1,0.1-0.2,0.2-0.2l0.6-0.1
				c0.1,0,0.2,0.1,0.3,0.2c0.1-0.1,0.2-0.1,0.3-0.1c0.2,0.1,0.4,0.2,0.5,0.3c0.1,0.1,0.2,0.2,0.2,0.3c0.1,0,0.2,0,0.3,0.1l0.3,0.5
				c0.1,0.1,0.1,0.2,0,0.3c0.1,0,0.2,0.1,0.2,0.2l0.1,0.5c0,0.1,0,0.2-0.1,0.3c0.1,0.1,0.2,0.1,0.2,0.2l0,0.6c0,0.1-0.1,0.2-0.2,0.2
				c0.1,0.1,0.1,0.2,0.1,0.3l-0.1,0.5c0,0.1-0.1,0.2-0.2,0.2c0.1,0.1,0.1,0.2,0.1,0.3l-0.2,0.5c0,0.1-0.1,0.1-0.2,0.2
				c0.1,0.1,0.1,0.2,0,0.3l-0.3,0.5c-0.1,0.1-0.2,0.1-0.3,0.1c0,0.1,0,0.2-0.1,0.3l-0.4,0.3c-0.1,0.1-0.2,0.1-0.3,0
				c0,0.1-0.1,0.2-0.2,0.2l-0.3,0.1l1.9,5l0.1-0.3c0.1-0.1,0.1-0.1,0.2-0.2c0-0.1,0-0.2,0-0.3l0.3-0.4c0.1-0.1,0.2-0.1,0.3-0.1
				c0-0.1,0-0.2,0.1-0.3l0.4-0.3c0.1-0.1,0.2-0.1,0.3,0c0-0.1,0.1-0.2,0.2-0.2c0.2-0.1,0.4-0.1,0.6-0.1c0.1,0,0.2,0,0.3,0.1
				c0.1-0.1,0.2-0.1,0.3-0.1c0.2,0.1,0.4,0.2,0.6,0.2c0.1,0.1,0.1,0.2,0.1,0.3c0.1,0,0.2,0,0.3,0.1l0.3,0.5c0.1,0.1,0.1,0.2,0,0.3
				c0.1,0,0.2,0.1,0.2,0.2l0.1,0.5c0,0.1,0,0.2-0.1,0.3c0.1,0.1,0.2,0.2,0.2,0.3v0.5c0,0.1-0.1,0.2-0.2,0.2c0.1,0.1,0.1,0.2,0.1,0.3
				l-0.1,0.5c0,0.1-0.1,0.2-0.2,0.2c0.1,0.1,0.1,0.2,0,0.3l-0.2,0.5c-0.1,0.1-0.1,0.2-0.2,0.2c0,0.1,0,0.2,0,0.3l-0.3,0.4
				c-0.1,0.1-0.1,0.1-0.2,0.1c0,0.1,0,0.2-0.1,0.3l-0.4,0.4c-0.1,0.1-0.2,0.1-0.3,0c0,0.1-0.1,0.2-0.2,0.2c-0.2,0.1-0.3,0.1-0.4,0.1
				l2,5.1c0.1-0.2,0.1-0.4,0.2-0.5c0-0.1,0.1-0.2,0.2-0.2c0-0.1,0-0.2,0-0.3l0.3-0.4c0.1-0.1,0.2-0.1,0.3-0.1c0-0.1,0-0.2,0.1-0.3
				l0.4-0.3c0.1-0.1,0.2-0.1,0.3,0c0-0.1,0.1-0.2,0.2-0.2c0.3-0.1,0.5-0.1,0.6-0.1c0.1,0,0.2,0.1,0.3,0.2c0.1-0.1,0.2-0.1,0.3-0.1
				c0.2,0.1,0.4,0.2,0.5,0.3c0.1,0.1,0.2,0.2,0.2,0.3c0.1,0,0.2,0,0.3,0.1l0.3,0.5c0.1,0.1,0.1,0.2,0,0.3c0.1,0,0.2,0.1,0.2,0.2
				l0.1,0.6c0,0.1,0,0.2-0.1,0.3c0.1,0,0.2,0.1,0.2,0.2l0,0.5c0,0.1-0.1,0.2-0.2,0.3c0.1,0.1,0.1,0.2,0.1,0.3l-0.1,0.5
				c0,0.1-0.1,0.2-0.2,0.2c0.1,0.1,0.1,0.2,0.1,0.3l-0.2,0.5c0,0.1-0.1,0.1-0.2,0.2c0,0.1,0,0.2,0,0.3l-0.3,0.5
				c-0.1,0.1-0.2,0.1-0.3,0.1c0,0.1,0,0.2-0.1,0.3l-0.4,0.3c-0.1,0.1-0.2,0.1-0.3,0c0,0.1-0.1,0.2-0.2,0.2c-0.2,0.1-0.4,0.1-0.6,0.1
				l2.1,5.4l0,0c-0.1-0.1-0.1-0.2-0.1-0.3l0.2-0.5c0.1-0.1,0.1-0.1,0.2-0.2c0-0.1,0-0.2,0-0.3l0.3-0.5c0.1-0.1,0.2-0.1,0.2-0.1
				c0-0.1,0-0.2,0.1-0.3l0.5-0.3c0.1-0.1,0.2-0.1,0.3,0c0-0.1,0.1-0.2,0.2-0.2l0.6-0.1c0.1,0,0.2,0.1,0.3,0.2
				c0.1-0.1,0.2-0.1,0.3-0.1c0.2,0.1,0.4,0.2,0.6,0.3c0.1,0.1,0.2,0.2,0.1,0.3c0.1,0,0.2,0,0.3,0.1l0.3,0.5c0,0.1,0,0.2,0,0.3
				c0.1,0,0.2,0.1,0.2,0.2l0.1,0.5c0,0.1,0,0.2-0.1,0.3c0.1,0.1,0.1,0.2,0.1,0.3v0.5c0,0.1-0.1,0.2-0.2,0.2c0.1,0.1,0.1,0.2,0.1,0.3
				l-0.1,0.5c0,0.1-0.1,0.2-0.2,0.2c0.1,0.1,0.1,0.2,0,0.3l-0.2,0.5c-0.1,0.1-0.1,0.1-0.2,0.2c0,0.1,0,0.2,0,0.3l-0.3,0.5
				c-0.1,0.1-0.2,0.1-0.3,0.1c0,0.1,0,0.2-0.1,0.3l-0.4,0.3c-0.1,0.1-0.2,0.1-0.3,0c0,0.1-0.1,0.2-0.2,0.2c-0.1,0.1-0.3,0.1-0.6,0.2
				h0l-0.1,0l2.1,5.5l0.1-0.1c-0.1-0.1-0.1-0.2,0-0.3l0.2-0.5c0-0.1,0.1-0.2,0.2-0.2c0-0.1,0-0.2,0-0.3l0.3-0.4
				c0.1-0.1,0.2-0.1,0.3-0.1c0-0.1,0-0.2,0.1-0.3l0.4-0.4c0.1-0.1,0.2-0.1,0.3,0c0-0.1,0.1-0.2,0.2-0.2c0.2-0.1,0.4-0.1,0.6-0.1
				c0.1,0,0.2,0.1,0.3,0.2c0.1-0.1,0.2-0.1,0.3-0.1l0.6,0.2c0.1,0.1,0.1,0.2,0.1,0.3c0.1,0,0.2,0,0.3,0.1c0.1,0.1,0.2,0.2,0.3,0.5
				c0,0.1,0,0.2,0,0.3c0.1,0,0.1,0.1,0.2,0.2l0.1,0.6c0,0.1,0,0.2-0.1,0.3c0.1,0,0.2,0.1,0.2,0.2v0.5c0,0.1-0.1,0.2-0.2,0.2l0.1,0.3
				l-0.1,0.5c0,0.1-0.1,0.2-0.2,0.2c0.1,0.1,0.1,0.2,0.1,0.3l-0.2,0.5c0,0.1-0.1,0.2-0.2,0.2c0,0.1,0,0.2,0,0.3l-0.3,0.4
				c-0.1,0.1-0.2,0.1-0.3,0.1c0,0.1,0,0.2-0.1,0.3c-0.1,0.1-0.3,0.3-0.4,0.4c-0.1,0.1-0.2,0.1-0.3,0c0,0.1-0.1,0.2-0.2,0.2l-0.6,0.1
				h0c-0.1,0-0.2-0.1-0.2-0.2l5.1,13.2v6.8L56.2,351L26,428.8V422l5.1-13.2c-0.1,0.1-0.2,0.2-0.3,0.2l-0.6-0.1
				c-0.1-0.1-0.2-0.1-0.2-0.2c-0.1,0-0.2,0-0.3,0c-0.2-0.1-0.3-0.2-0.4-0.4c-0.1-0.1-0.1-0.2-0.1-0.3c-0.1,0-0.2,0-0.3-0.1l-0.3-0.4
				c-0.1-0.1-0.1-0.2,0-0.3c-0.1,0-0.2-0.1-0.2-0.2l-0.2-0.5c-0.1-0.2,0-0.3,0.2-0.4h0l-0.1-0.2l-0.3,0.1l-0.1-0.5l0.1-0.3
				c-0.1,0-0.1-0.1-0.2-0.2v-0.5c0-0.1,0.1-0.2,0.2-0.2c-0.1-0.1-0.1-0.2-0.1-0.3l0.1-0.5c0-0.1,0.1-0.2,0.2-0.2c0-0.1,0-0.2,0-0.3
				c0.2-0.2,0.3-0.4,0.3-0.5c0.1-0.1,0.2-0.2,0.3-0.1c0-0.1,0-0.2,0.1-0.3l0.6-0.2c0.1,0,0.2,0,0.3,0.1c0.1-0.1,0.2-0.2,0.3-0.2
				c0.1,0,0.3,0,0.6,0.1c0.1,0,0.2,0.1,0.2,0.2c0.1-0.1,0.2-0.1,0.3,0l0.4,0.4c0.1,0.1,0.1,0.2,0.1,0.3c0.1,0,0.2,0,0.3,0.1l0.3,0.4
				c0.1,0.1,0.1,0.2,0,0.3c0.1,0,0.2,0.1,0.2,0.2l0.2,0.5c0,0.1,0,0.2-0.1,0.3l0.2,0.1l2.1-5.5l-0.1,0h0c-0.2,0-0.4-0.1-0.6-0.2
				c-0.1,0-0.1-0.1-0.2-0.2c-0.1,0.1-0.2,0.1-0.3,0l-0.4-0.3c-0.1-0.1-0.1-0.2-0.1-0.3c-0.1,0-0.2,0-0.3-0.1l-0.3-0.5
				c0-0.1,0-0.2,0-0.3c-0.1,0-0.2-0.1-0.2-0.2c-0.1-0.3-0.2-0.5-0.2-0.5c-0.1-0.2,0-0.3,0.2-0.4l-0.1-0.2l-0.3,0.1l-0.1-0.5
				c0-0.1,0-0.2,0.1-0.3c-0.1-0.1-0.2-0.1-0.2-0.2l0-0.4l0-0.2c0-0.1,0-0.2,0.1-0.2c-0.1-0.1-0.1-0.2-0.1-0.3l0.1-0.5
				c0-0.1,0.1-0.2,0.2-0.2c-0.1-0.1-0.1-0.2,0-0.3l0.3-0.5c0.1-0.1,0.2-0.1,0.3-0.1c0-0.1,0-0.2,0.1-0.3c0.1-0.1,0.3-0.2,0.5-0.3
				c0.1,0,0.2,0,0.3,0.1c0.1-0.1,0.2-0.2,0.3-0.2l0.6,0.1c0.1,0.1,0.2,0.2,0.2,0.2c0.1,0,0.2,0,0.3,0l0.4,0.3
				c0.1,0.1,0.1,0.2,0.1,0.3c0.1,0,0.2,0,0.3,0.1l0.3,0.5c0.1,0.1,0.1,0.2,0,0.3c0.1,0,0.2,0.1,0.2,0.2l0.2,0.5
				c0.1,0.1,0.1,0.2,0,0.3h0l2.1-5.4c-0.1,0-0.3,0-0.6-0.1c-0.1-0.1-0.2-0.1-0.2-0.2c-0.1,0-0.2,0-0.3,0l-0.4-0.3
				c-0.1-0.1-0.1-0.2-0.1-0.3c-0.1,0-0.2,0-0.3-0.1l-0.3-0.5c-0.1-0.1-0.1-0.2,0-0.3c-0.1,0-0.2-0.1-0.2-0.2l-0.2-0.5
				c-0.1-0.2,0-0.3,0.2-0.4h0l-0.1-0.2l-0.3,0.1v0l-0.1-0.5c0-0.1,0-0.2,0.1-0.3c-0.1-0.1-0.1-0.2-0.2-0.3v-0.5
				c0-0.1,0.1-0.2,0.2-0.2c-0.1-0.1-0.1-0.2-0.1-0.3l0.1-0.6c0-0.1,0.1-0.2,0.2-0.2c-0.1-0.1-0.1-0.2,0-0.3l0.3-0.5
				c0.1-0.1,0.2-0.1,0.3-0.1c0-0.1,0-0.2,0.1-0.3l0.6-0.3c0.1,0,0.2,0,0.3,0.1c0.1-0.1,0.2-0.2,0.3-0.2c0.1,0,0.3,0,0.6,0.1
				c0.1,0,0.2,0.1,0.2,0.2c0.1-0.1,0.2-0.1,0.3,0l0.4,0.3c0.1,0.1,0.1,0.2,0.1,0.3c0.1,0,0.2,0,0.3,0.1l0.3,0.4
				c0.1,0.1,0.1,0.2,0,0.3c0.1,0,0.2,0.1,0.2,0.2c0.1,0.1,0.2,0.3,0.2,0.5l2-5.1c-0.1,0-0.3,0-0.5-0.1c-0.1,0-0.1-0.1-0.2-0.2
				c-0.1,0-0.2,0-0.3,0l-0.4-0.4c-0.1-0.1-0.1-0.2-0.1-0.3c-0.1,0-0.2,0-0.3-0.1l-0.3-0.4c0-0.1,0-0.2,0-0.3c-0.1,0-0.2-0.1-0.2-0.2
				l-0.2-0.5c-0.1-0.2,0-0.3,0.2-0.4l-0.1-0.2l-0.3,0.1l-0.1-0.5c0-0.1,0-0.2,0.1-0.3c-0.1,0-0.2-0.1-0.2-0.2v-0.5
				c0-0.1,0-0.2,0.1-0.3c-0.1-0.1-0.1-0.2-0.1-0.3l0.1-0.5c0-0.1,0.1-0.2,0.2-0.2c-0.1-0.1-0.1-0.2,0-0.3c0.2-0.2,0.3-0.4,0.3-0.5
				c0.1-0.1,0.2-0.1,0.3-0.1c0-0.1,0-0.2,0.1-0.3c0.1-0.1,0.3-0.2,0.6-0.2c0.1,0,0.2,0,0.3,0.1c0.1-0.1,0.2-0.2,0.3-0.1
				c0.2,0,0.4,0,0.6,0.1c0.1,0,0.2,0.1,0.2,0.2c0.1-0.1,0.2-0.1,0.3,0l0.5,0.3c0.1,0.1,0.1,0.2,0.1,0.3c0.1,0,0.2,0,0.2,0.1l0.3,0.4
				c0.1,0.1,0.1,0.2,0,0.3c0.1,0,0.2,0.1,0.2,0.2l0.1,0.3l1.9-5l-0.3-0.1c-0.1,0-0.2-0.1-0.2-0.2c-0.1,0.1-0.2,0.1-0.3,0l-0.4-0.3
				c-0.1-0.1-0.1-0.2-0.1-0.3c-0.1,0-0.2,0-0.3-0.1l-0.3-0.5c-0.1-0.1-0.1-0.2,0-0.3c-0.1,0-0.2-0.1-0.2-0.2l-0.2-0.5
				c-0.1-0.2,0-0.3,0.2-0.4h0l-0.1-0.2l-0.3,0.1l-0.1-0.5c0-0.1,0-0.2,0.1-0.3c-0.1-0.1-0.1-0.1-0.2-0.2v-0.6c0-0.1,0.1-0.2,0.2-0.2
				c-0.1-0.1-0.1-0.2-0.1-0.3l0.1-0.5c0-0.1,0.1-0.2,0.2-0.2c0-0.1,0-0.2,0-0.3l0.3-0.5c0.1-0.1,0.2-0.1,0.3-0.1
				c0-0.1,0-0.2,0.1-0.3l0.6-0.3c0.1,0,0.2,0,0.3,0.1c0.1-0.1,0.2-0.2,0.3-0.2l0.6,0.1c0.1,0.1,0.2,0.1,0.2,0.2c0.1,0,0.2,0,0.3,0
				l0.4,0.3c0.1,0.1,0.1,0.2,0.1,0.3c0.1,0,0.2,0,0.3,0.1l0.3,0.5c0.1,0.1,0.1,0.2,0,0.3c0.1,0,0.2,0.1,0.2,0.2l0.1,0.2l1.9-4.9
				l-0.2-0.1c-0.1-0.1-0.2-0.1-0.2-0.2c-0.1,0-0.2,0-0.3,0l-0.4-0.3c-0.1-0.1-0.1-0.2-0.1-0.3c-0.1,0-0.2,0-0.3-0.1l-0.3-0.4
				c-0.1-0.1-0.1-0.2,0-0.3c-0.1,0-0.2-0.1-0.2-0.2l-0.2-0.5c-0.1-0.2,0-0.3,0.2-0.4l-0.1-0.2l-0.3,0.1l-0.1-0.5
				c0-0.1,0-0.2,0.1-0.3c-0.1,0-0.2-0.1-0.2-0.2v-0.5c0-0.1,0.1-0.2,0.2-0.2c-0.1-0.1-0.1-0.2-0.1-0.3l0.1-0.6
				c0-0.1,0.1-0.2,0.2-0.2c-0.1-0.1-0.1-0.2,0-0.3l0.3-0.5c0.1-0.1,0.2-0.1,0.3-0.1c0-0.1,0-0.2,0.1-0.3c0.2-0.1,0.3-0.2,0.6-0.3
				c0.1,0,0.2,0,0.3,0.1c0.1-0.1,0.2-0.2,0.3-0.2c0.1,0,0.3,0,0.6,0.1c0.1,0,0.2,0.1,0.2,0.2c0.1-0.1,0.2-0.1,0.3,0
				c0.2,0.1,0.4,0.2,0.5,0.3c0.1,0.1,0.1,0.2,0.1,0.3c0.1,0,0.2,0,0.3,0.1l0.3,0.4c0,0.1,0,0.2,0,0.3c0.1,0,0.2,0.1,0.2,0.2v0l1.6-4
				H15.3l-0.6-6.9l-0.5,6.9h-0.6L12.4,325l-1.3,26.8l-0.3,0.5l-0.6-6.1v-55.1l-2.9-33.8l-1.9,19v-21l-1.7-19.5L2,253.6l-0.9-1.4
				l-1.5-28.5c0.6-0.2,1-0.5,1.4-1.1c0.3-0.6,0.5-1.3,0.5-2c0-0.8-0.2-1.5-0.6-2.2c-0.4-0.6-0.9-0.9-1.5-1l-0.2-2.8l-0.2,2.8l-0.1,0
				V217l-0.1,0.5c-0.6,0.1-1,0.5-1.4,1.1c-0.4,0.6-0.6,1.3-0.6,2c0,0.8,0.2,1.5,0.6,2.1l-6,23.6l-2.8-22.4h1.5
				c0.4,0,0.8-0.1,1.1-0.4c0.3-0.3,0.4-0.7,0.4-1.1c0-0.4-0.1-0.8-0.4-1.1c-0.3-0.3-0.7-0.5-1.1-0.5h-1.9l-0.3-2.6h1.4
				c0.4,0,0.8-0.1,1-0.4c0.3-0.3,0.4-0.7,0.4-1.1c0-0.4-0.1-0.8-0.4-1.1c-0.3-0.3-0.6-0.4-1-0.4h-1.8l-0.3-2.6h1.4
				c0.4,0,0.7-0.1,1-0.4c0.3-0.3,0.4-0.7,0.4-1.1c0-0.4-0.1-0.8-0.4-1.1c-0.3-0.3-0.6-0.4-1-0.4h-1.8l-0.3-2.6h1.3
				c0.4,0,0.7-0.1,1-0.4c0.3-0.3,0.4-0.7,0.4-1.1c0-0.4-0.1-0.8-0.4-1.1c-0.3-0.3-0.6-0.5-1-0.5h-1.7l-0.3-2.6h1.2
				c0.4,0,0.7-0.1,1-0.4c0.3-0.3,0.4-0.7,0.4-1.1c0-0.4-0.1-0.8-0.4-1c-0.3-0.3-0.6-0.4-1-0.4h-1.6l-0.3-2.6h1.2
				c0.4,0,0.7-0.1,1-0.4c0.3-0.3,0.4-0.7,0.4-1.1c0-0.4-0.1-0.8-0.4-1.1c-0.3-0.3-0.6-0.4-1-0.4h-1.5l-0.3-2.7h1.1
				c0.4,0,0.7-0.1,1-0.4c0.3-0.3,0.4-0.6,0.4-1.1c0-0.4-0.1-0.8-0.4-1.1c-0.3-0.3-0.6-0.4-1-0.4H-16l-0.3-2.6h1c0.4,0,0.7-0.1,1-0.4
				c0.2-0.3,0.4-0.7,0.4-1.1c0-0.4-0.1-0.8-0.4-1.1c-0.3-0.3-0.6-0.4-1-0.4h-1.4l-0.3-2.6h1c0.3,0,0.7-0.1,0.9-0.4
				c0.2-0.3,0.4-0.7,0.4-1.1c0-0.4-0.1-0.8-0.4-1.1c-0.3-0.3-0.6-0.4-0.9-0.4h-1.4l-0.3-2.7h1c0.3,0,0.6-0.1,0.9-0.4
				c0.2-0.3,0.4-0.7,0.4-1.1c0-0.4-0.1-0.8-0.4-1.1c-0.2-0.3-0.5-0.4-0.9-0.4h-1.3l-0.3-2.6h0.9c0.3,0,0.6-0.1,0.9-0.4
				c0.2-0.3,0.4-0.7,0.4-1.1c0-0.4-0.1-0.8-0.4-1.1c-0.2-0.3-0.5-0.4-0.9-0.4h-1.2l-0.3-2.6h0.8c0.3,0,0.6-0.1,0.9-0.4
				c0.2-0.3,0.4-0.7,0.4-1.1c0-0.4-0.1-0.8-0.4-1.1c-0.2-0.3-0.5-0.4-0.9-0.4h-1.2l-0.3-2.7h0.7c0.3,0,0.6-0.1,0.9-0.4
				c0.2-0.3,0.3-0.7,0.3-1.1c0-0.4-0.1-0.8-0.3-1.1c-0.2-0.3-0.5-0.4-0.9-0.4h-1.1l-0.3-2.6h0.7c0.3,0,0.6-0.1,0.8-0.4
				c0.2-0.3,0.3-0.7,0.3-1.1c0-0.4-0.1-0.8-0.3-1.1c-0.2-0.3-0.5-0.4-0.8-0.4h-1l-0.3-2.7h0.6c0.3,0,0.6-0.1,0.8-0.4
				c0.2-0.3,0.3-0.6,0.3-1c0-0.4-0.1-0.8-0.3-1.1c-0.2-0.3-0.5-0.4-0.8-0.4h-1l-0.3-2.7h0.6c0.3,0,0.6-0.1,0.8-0.4
				c0.2-0.3,0.3-0.7,0.3-1.1c0-0.4-0.1-0.8-0.3-1.1c-0.2-0.3-0.5-0.4-0.8-0.4h-0.9l-0.3-2.6h0.5c0.3,0,0.6-0.1,0.8-0.4
				c0.2-0.3,0.3-0.7,0.3-1.1c0-0.4-0.1-0.8-0.3-1.1c-0.2-0.3-0.5-0.4-0.8-0.4h-0.8l-0.3-2.7h0.4c0.3,0,0.6-0.1,0.8-0.4
				c0.2-0.3,0.3-0.7,0.3-1.1s-0.1-0.8-0.3-1c-0.2-0.3-0.5-0.4-0.8-0.4h-0.8l-0.3-2.7h0.3c0.3,0,0.5-0.1,0.8-0.4
				c0.2-0.3,0.3-0.7,0.3-1.1c0-0.4-0.1-0.8-0.3-1.1c-0.2-0.3-0.5-0.4-0.8-0.4h-0.7l-0.3-2.7h0.3c0.3,0,0.5-0.1,0.7-0.4
				c0.2-0.3,0.3-0.6,0.3-1c0-0.4-0.1-0.8-0.3-1.1c-0.2-0.3-0.5-0.4-0.7-0.4h-0.6l-0.3-2.7h0.2c0.3,0,0.5-0.1,0.7-0.4
				c0.2-0.3,0.3-0.7,0.3-1.1s-0.1-0.8-0.3-1c-0.2-0.3-0.4-0.4-0.7-0.4h-0.6l-0.3-2.7h0.2c0.3,0,0.5-0.1,0.7-0.4
				c0.2-0.3,0.3-0.7,0.3-1.1c0-0.4-0.1-0.8-0.3-1.1c-0.2-0.3-0.4-0.4-0.7-0.4h-0.6l-0.5-4.3v-4.3h1.7c0.3,0.3,0.7,0.5,1.1,0.5
				c0.5,0,0.9-0.2,1.3-0.6c0.3-0.4,0.5-0.9,0.5-1.4c0-0.6-0.2-1-0.5-1.4c-0.3-0.4-0.8-0.6-1.3-0.6c-0.4,0-0.8,0.2-1.1,0.5h-1.7v-2.2
				c0.6-0.3,0.8-0.7,0.8-1.3c0-0.5-0.3-1-0.8-1.3V85l0.1-0.4c0-0.4-0.1-0.7-0.4-1c-0.2-0.3-0.5-0.4-0.9-0.4c-0.3,0-0.6,0.1-0.8,0.4
				c-0.2,0.3-0.4,0.6-0.4,1c0,0.2,0.1,0.4,0.2,0.7v0.2c-0.6,0.3-0.9,0.7-0.9,1.3c0,0.6,0.3,1,0.9,1.3v2.1h-1.5
				c-0.3-0.3-0.7-0.5-1.1-0.5C-32.5,89.7-32.9,89.9-33.3,90.3 M155.5,331.3c0.4,0.1,0.6,0.4,0.8,0.9c0.2,0.5,0.2,1,0,1.6
				c-0.1,0.5-0.4,1-0.7,1.3c-0.3,0.3-0.7,0.5-1,0.5l1.5,3.9l0-0.1c0.1-0.6,0.4-1,0.8-1.4c0.4-0.3,0.7-0.5,1.1-0.4
				c0.4,0.1,0.6,0.4,0.8,0.9c0.2,0.5,0.2,1,0,1.6c-0.1,0.6-0.4,1-0.7,1.4c-0.3,0.3-0.7,0.5-1.1,0.4l3.3,8.4v4.2l-19.1-48.6
				l-19.1,48.6v-4.2l3.3-8.4c-0.3,0-0.7-0.1-1-0.4c-0.4-0.3-0.6-0.8-0.8-1.4c-0.1-0.6-0.1-1.1,0-1.6c0.2-0.5,0.4-0.8,0.8-0.9
				c0.4-0.1,0.7,0.1,1.1,0.4c0.4,0.3,0.7,0.8,0.8,1.4l0,0.1l1.5-3.9c-0.3,0-0.7-0.1-1-0.5c-0.3-0.3-0.6-0.8-0.7-1.3
				c-0.1-0.6-0.1-1.1,0-1.6c0.1-0.5,0.4-0.8,0.8-0.9c0.4-0.1,0.7,0,1.1,0.4c0.4,0.3,0.7,0.8,0.8,1.4l1.5-3.8c-0.3,0-0.7-0.2-1-0.5
				c-0.3-0.3-0.5-0.8-0.7-1.3c-0.1-0.6-0.1-1.1,0-1.6c0.2-0.5,0.4-0.8,0.8-0.9c0.3-0.1,0.7,0,1.1,0.3c0.4,0.3,0.6,0.8,0.8,1.3
				l1.4-3.7c-0.3,0-0.6-0.2-0.9-0.6c-0.3-0.3-0.5-0.7-0.6-1.2c-0.1-0.6-0.1-1.1,0-1.6c0.2-0.5,0.4-0.8,0.8-0.9
				c0.3-0.1,0.7,0,1.1,0.3c0.3,0.3,0.6,0.7,0.8,1.2l1.4-3.6c-0.3-0.1-0.6-0.3-0.9-0.6c-0.3-0.3-0.5-0.7-0.6-1.2
				c-0.1-0.3-0.1-0.8-0.1-1.2c0.1-0.7,0.4-1.1,0.9-1.2c0.3-0.1,0.6,0,1,0.2c0.3,0.2,0.6,0.6,0.8,1l0.1,0.2l0.1-0.2l1.3-3.3
				c-0.3-0.1-0.6-0.3-0.8-0.6c-0.3-0.3-0.5-0.7-0.6-1.2c-0.1-0.6-0.1-1.1,0-1.6c0.2-0.5,0.4-0.8,0.8-0.9c0.3-0.1,0.7,0,1,0.3
				c0.3,0.2,0.6,0.6,0.8,1.1l2.4-6l2.3,6c0.2-0.5,0.5-0.8,0.8-1.1c0.3-0.3,0.6-0.4,1-0.3c0.4,0.1,0.7,0.4,0.8,0.9
				c0.2,0.5,0.2,1,0,1.6c-0.3,1-0.7,1.6-1.4,1.8l1.4,3.5l0.1-0.2c0.2-0.4,0.4-0.8,0.8-1c0.3-0.2,0.6-0.3,0.9-0.2
				c0.5,0.1,0.8,0.5,0.9,1.2c0.1,0.3,0,0.8-0.1,1.2c-0.1,0.5-0.3,0.9-0.6,1.2c-0.3,0.3-0.6,0.5-0.9,0.6l1.4,3.6
				c0.2-0.5,0.4-0.9,0.8-1.2c0.3-0.3,0.7-0.4,1-0.3c0.4,0.1,0.7,0.4,0.8,0.9c0.2,0.5,0.2,1,0,1.6c-0.1,0.5-0.4,0.9-0.6,1.2
				c-0.3,0.3-0.6,0.5-1,0.6l1.4,3.7c0.2-0.6,0.4-1,0.8-1.3c0.3-0.3,0.7-0.4,1.1-0.3c0.4,0.1,0.6,0.4,0.8,0.9c0.2,0.5,0.2,1,0,1.6
				c-0.1,0.5-0.3,0.9-0.6,1.3c-0.3,0.3-0.6,0.5-1,0.5l1.5,3.8c0.2-0.6,0.4-1,0.8-1.4C154.7,331.4,155.1,331.3,155.5,331.3
				 M155.7,392.9v0.8h-3.9v34.1h-6.6v-34.1h-3.8v-0.8h3.8v-0.6c0-1.8,0.6-3.3,1.7-4.7c0.5-0.7,1.1-1.2,1.6-1.5l1.7,1.5
				c1.1,1.3,1.7,2.9,1.7,4.7v0.6H155.7 M160.3,358v10.5l-19.1-48.6l-19.1,48.6V358l19.1-48.6L160.3,358 M143.1,229.5
				c0.2-0.2,0.5-0.2,0.7-0.2c0.3,0.1,0.5,0.3,0.6,0.6c0.1,0.3,0.1,0.7,0,1.1c-0.1,0.3-0.2,0.6-0.4,0.8c-0.2,0.2-0.4,0.4-0.6,0.4
				l1,2.4c0.1-0.3,0.3-0.6,0.5-0.8c0.2-0.2,0.5-0.2,0.7-0.2c0.2,0.1,0.4,0.3,0.5,0.6c0.1,0.3,0.1,0.7,0,1.1c-0.2,0.8-0.6,1.2-1,1.2
				l1,2.5c0.1-0.3,0.3-0.6,0.5-0.8s0.5-0.3,0.7-0.2c0.3,0.1,0.5,0.3,0.6,0.6s0.1,0.7,0,1.1c-0.1,0.3-0.2,0.6-0.4,0.9
				c-0.2,0.2-0.4,0.3-0.6,0.4l1,2.6c0.1-0.4,0.3-0.7,0.6-0.9c0.2-0.2,0.5-0.3,0.7-0.2c0.3,0.1,0.5,0.3,0.6,0.6
				c0.1,0.3,0.1,0.7,0,1.1c-0.1,0.3-0.2,0.6-0.5,0.9c-0.2,0.2-0.5,0.3-0.7,0.3l1,2.6c0.1-0.4,0.3-0.7,0.6-1c0.2-0.2,0.5-0.3,0.8-0.2
				c0.2,0.1,0.4,0.3,0.5,0.6c0.1,0.3,0.1,0.7,0,1.1c-0.1,0.4-0.3,0.7-0.5,0.9c-0.2,0.2-0.5,0.3-0.7,0.3l1,2.7l0-0.1
				c0.1-0.4,0.3-0.7,0.6-1c0.2-0.2,0.5-0.3,0.7-0.2c0.3,0.1,0.5,0.3,0.6,0.6c0.1,0.3,0.1,0.7,0,1.1c-0.1,0.4-0.2,0.7-0.5,1
				c-0.2,0.2-0.5,0.3-0.7,0.3l2.2,5.8v12.7l-13.1-33.7l-13.1,33.7v-12.7l2.3-5.8c-0.2,0-0.5-0.1-0.7-0.3c-0.2-0.2-0.4-0.6-0.5-1
				c-0.1-0.4-0.1-0.8,0-1.1c0.1-0.3,0.3-0.5,0.6-0.6c0.2-0.1,0.5,0,0.7,0.2c0.3,0.2,0.5,0.6,0.6,1v0.1l1.1-2.7
				c-0.2,0-0.5-0.1-0.7-0.3c-0.2-0.2-0.4-0.6-0.5-0.9c-0.1-0.4-0.1-0.8,0-1.1c0.1-0.3,0.3-0.5,0.6-0.6c0.3-0.1,0.5,0,0.8,0.2
				c0.3,0.2,0.4,0.6,0.5,1l1-2.6c-0.2,0-0.5-0.1-0.7-0.3c-0.2-0.2-0.4-0.5-0.5-0.9c-0.1-0.4-0.1-0.8,0-1.1c0.1-0.3,0.3-0.5,0.6-0.6
				c0.2-0.1,0.5,0,0.7,0.2c0.2,0.2,0.4,0.5,0.5,0.9l1-2.6c-0.2,0-0.4-0.1-0.6-0.4s-0.4-0.5-0.5-0.9c-0.1-0.4-0.1-0.8,0-1.1
				c0.1-0.3,0.3-0.5,0.6-0.6c0.2-0.1,0.5,0,0.7,0.2c0.2,0.2,0.4,0.5,0.5,0.8l1-2.5c-0.5-0.1-0.8-0.5-1-1.2c-0.1-0.4-0.1-0.8,0-1.1
				c0.1-0.3,0.3-0.5,0.6-0.6c0.2-0.1,0.5,0,0.7,0.2c0.2,0.2,0.4,0.5,0.5,0.8l1-2.4c-0.5-0.1-0.8-0.5-1-1.2c-0.1-0.4-0.1-0.8,0-1.1
				c0.1-0.3,0.3-0.5,0.6-0.6c0.2-0.1,0.5,0,0.7,0.2c0.2,0.2,0.4,0.4,0.5,0.7l1.6-4.1l1.6,4.1C142.7,229.9,142.8,229.7,143.1,229.5
				 M140.9,260.7c-1.9,1.1-3.9,2.9-5.8,5.3c-3.9,4.8-5.9,10.4-5.9,16.9v30.9h-1.4v-38.9l13.1-33.8l13.1,33.8v38.9h-1.4v-30.9
				c0-6.4-1.9-12.1-5.8-16.9c-1.2-1.5-2.6-2.8-4-4L140.9,260.7 M135.4,268.4c1.8-2.3,3.7-3.9,5.5-5l1.8,1.2c1.4,1.1,2.7,2.4,3.8,3.8
				c3.7,4.6,5.6,9.9,5.6,16v29.4h-1.1v-26.5c0-5.5-1.7-10.3-5-14.4c-1-1.3-2.2-2.4-3.4-3.4l-1.6-1.1c-1.7,1-3.3,2.5-5,4.5
				c-3.3,4.1-5,8.9-5,14.4v26.5h-1.1v-29.4C129.8,278.3,131.7,273,135.4,268.4 M-30.8,229.3c0.2-0.1,0.5,0,0.7,0.2
				c0.2,0.2,0.4,0.4,0.5,0.7l1.6-4.1l1.6,4.1c0.1-0.3,0.3-0.6,0.5-0.7c0.2-0.2,0.5-0.2,0.7-0.2c0.3,0.1,0.5,0.3,0.6,0.6
				c0.1,0.3,0.1,0.7,0,1.1c-0.1,0.3-0.2,0.6-0.4,0.8c-0.2,0.2-0.4,0.4-0.6,0.4l1,2.4c0.1-0.3,0.3-0.6,0.5-0.8
				c0.2-0.2,0.5-0.2,0.7-0.2c0.2,0.1,0.4,0.3,0.5,0.6c0.1,0.3,0.1,0.7,0,1.1c-0.2,0.8-0.6,1.2-1,1.2l1,2.5c0.1-0.3,0.3-0.6,0.5-0.8
				s0.5-0.3,0.7-0.2c0.3,0.1,0.5,0.3,0.6,0.6c0.1,0.3,0.1,0.7,0,1.1c-0.1,0.3-0.2,0.6-0.4,0.9c-0.2,0.2-0.4,0.3-0.6,0.4l1,2.6
				c0.1-0.4,0.3-0.7,0.6-0.9c0.2-0.2,0.5-0.3,0.7-0.2c0.3,0.1,0.5,0.3,0.6,0.6c0.1,0.3,0.1,0.7,0,1.1c-0.1,0.3-0.2,0.6-0.5,0.9
				c-0.2,0.2-0.5,0.3-0.7,0.3l1,2.6c0.1-0.4,0.3-0.7,0.6-1c0.2-0.2,0.5-0.3,0.8-0.2c0.2,0.1,0.4,0.3,0.5,0.6c0.1,0.3,0.1,0.7,0,1.1
				c-0.1,0.4-0.3,0.7-0.5,0.9c-0.2,0.2-0.5,0.3-0.7,0.3l1,2.7l0-0.1c0.1-0.4,0.3-0.7,0.6-1c0.2-0.2,0.5-0.3,0.7-0.2
				c0.3,0.1,0.5,0.3,0.6,0.6c0.1,0.3,0.1,0.7,0,1.1c-0.1,0.4-0.2,0.7-0.5,1c-0.2,0.2-0.5,0.3-0.7,0.3l2.2,5.8v12.7L-28,238.8
				l-13.1,33.7v-12.7l2.3-5.8c-0.2,0-0.5-0.1-0.7-0.3c-0.2-0.2-0.4-0.6-0.5-1c-0.1-0.4-0.1-0.8,0-1.1c0.1-0.3,0.3-0.5,0.6-0.6
				c0.2-0.1,0.5,0,0.7,0.2c0.3,0.2,0.5,0.6,0.6,1v0.1l1.1-2.7c-0.2,0-0.5-0.1-0.7-0.3c-0.2-0.2-0.4-0.6-0.5-0.9
				c-0.1-0.4-0.1-0.8,0-1.1c0.1-0.3,0.3-0.5,0.6-0.6c0.3-0.1,0.5,0,0.8,0.2c0.3,0.2,0.4,0.6,0.5,1l1-2.6c-0.2,0-0.5-0.1-0.7-0.3
				c-0.2-0.2-0.4-0.5-0.5-0.9c-0.1-0.4-0.1-0.8,0-1.1c0.1-0.3,0.3-0.5,0.6-0.6c0.2-0.1,0.5,0,0.7,0.2c0.2,0.2,0.4,0.5,0.5,0.9l1-2.6
				c-0.2,0-0.4-0.1-0.6-0.4s-0.4-0.5-0.5-0.9c-0.1-0.4-0.1-0.8,0-1.1c0.1-0.3,0.3-0.5,0.6-0.6c0.2-0.1,0.5,0,0.7,0.2
				c0.2,0.2,0.4,0.5,0.5,0.8l1-2.5c-0.5-0.1-0.8-0.5-1-1.2c-0.1-0.4-0.1-0.8,0-1.1c0.1-0.3,0.3-0.5,0.6-0.6c0.2-0.1,0.5,0,0.7,0.2
				c0.2,0.2,0.4,0.5,0.5,0.8l1-2.4c-0.5-0.1-0.8-0.5-1-1.2c-0.1-0.4-0.1-0.8,0-1.1C-31.2,229.6-31,229.4-30.8,229.3 M-28,263.4
				l1.8,1.2c1.4,1.1,2.7,2.4,3.8,3.8c3.7,4.6,5.6,9.9,5.6,16v29.4H-18v-26.5c0-5.5-1.7-10.3-5-14.4c-1-1.3-2.2-2.4-3.4-3.4l-1.6-1.1
				c-1.7,1-3.3,2.5-5,4.5c-3.3,4.1-5,8.9-5,14.4v26.5h-1.1v-29.4c0-6.1,1.9-11.4,5.6-16C-31.7,266.1-29.8,264.5-28,263.4
				 M-22.1,265.9c-1.2-1.5-2.6-2.8-4-4l-1.8-1.3c-1.9,1.1-3.9,2.9-5.8,5.3c-3.9,4.8-5.9,10.4-5.9,16.9v30.9h-1.4v-38.9L-28,241
				l13.1,33.8v38.9h-1.4v-30.9C-16.3,276.4-18.2,270.8-22.1,265.9 M-18.5,318.8c0.4,0.1,0.7,0.4,0.8,0.9c0.2,0.5,0.2,1,0,1.6
				c-0.1,0.5-0.4,0.9-0.6,1.2c-0.3,0.3-0.6,0.5-1,0.6l1.4,3.7c0.2-0.6,0.4-1,0.8-1.3c0.3-0.3,0.7-0.4,1.1-0.3
				c0.4,0.1,0.6,0.4,0.8,0.9c0.2,0.5,0.2,1,0,1.6c-0.1,0.5-0.3,0.9-0.6,1.3c-0.3,0.3-0.6,0.5-1,0.5l1.5,3.8c0.2-0.6,0.4-1,0.8-1.4
				c0.4-0.3,0.7-0.5,1.1-0.4c0.4,0.1,0.6,0.4,0.8,0.9c0.2,0.5,0.2,1,0,1.6c-0.1,0.5-0.4,1-0.7,1.3c-0.3,0.3-0.7,0.5-1,0.5l1.5,3.9
				l0-0.1c0.1-0.6,0.4-1,0.8-1.4c0.4-0.3,0.7-0.5,1.1-0.4c0.4,0.1,0.6,0.4,0.8,0.9c0.2,0.5,0.2,1,0,1.6c-0.1,0.6-0.4,1-0.7,1.4
				c-0.3,0.3-0.7,0.5-1.1,0.4l3.3,8.4v4.2l-19.1-48.6l-19.1,48.6v-4.2l3.3-8.4c-0.3,0-0.7-0.1-1-0.4c-0.4-0.3-0.6-0.8-0.8-1.4
				c-0.1-0.6-0.1-1.1,0-1.6c0.2-0.5,0.4-0.8,0.8-0.9c0.4-0.1,0.7,0.1,1.1,0.4c0.4,0.3,0.7,0.8,0.8,1.4l0,0.1l1.5-3.9
				c-0.3,0-0.7-0.1-1-0.5c-0.3-0.3-0.6-0.8-0.7-1.3c-0.1-0.6-0.1-1.1,0-1.6c0.1-0.5,0.4-0.8,0.8-0.9c0.4-0.1,0.7,0,1.1,0.4
				c0.4,0.3,0.7,0.8,0.8,1.4l1.5-3.8c-0.3,0-0.7-0.2-1-0.5c-0.3-0.3-0.5-0.8-0.7-1.3c-0.1-0.6-0.1-1.1,0-1.6
				c0.2-0.5,0.4-0.8,0.8-0.9c0.3-0.1,0.7,0,1.1,0.3c0.4,0.3,0.6,0.8,0.8,1.3l1.4-3.7c-0.3,0-0.6-0.2-0.9-0.6
				c-0.3-0.3-0.5-0.7-0.6-1.2c-0.1-0.6-0.1-1.1,0-1.6c0.2-0.5,0.4-0.8,0.8-0.9c0.3-0.1,0.7,0,1.1,0.3c0.3,0.3,0.6,0.7,0.8,1.2
				l1.4-3.6c-0.3-0.1-0.6-0.3-0.9-0.6c-0.3-0.3-0.5-0.7-0.6-1.2c-0.1-0.3-0.1-0.8-0.1-1.2c0.1-0.7,0.4-1.1,0.9-1.2
				c0.3-0.1,0.6,0,1,0.2c0.3,0.2,0.6,0.6,0.8,1l0.1,0.2l0.1-0.2l1.3-3.3c-0.3-0.1-0.6-0.3-0.8-0.6c-0.3-0.3-0.5-0.7-0.6-1.2
				c-0.1-0.6-0.1-1.1,0-1.6c0.2-0.5,0.4-0.8,0.8-0.9c0.3-0.1,0.7,0,1,0.3c0.3,0.2,0.6,0.6,0.8,1.1l2.4-6l2.3,6
				c0.2-0.5,0.5-0.8,0.8-1.1c0.3-0.3,0.6-0.4,1-0.3c0.4,0.1,0.7,0.4,0.8,0.9c0.2,0.5,0.2,1,0,1.6c-0.3,1-0.7,1.6-1.4,1.8l1.4,3.5
				l0.1-0.2c0.2-0.4,0.4-0.8,0.8-1c0.3-0.2,0.6-0.3,0.9-0.2c0.5,0.1,0.8,0.5,0.9,1.2c0.1,0.3,0,0.8-0.1,1.2
				c-0.1,0.5-0.3,0.9-0.6,1.2c-0.3,0.3-0.6,0.5-0.9,0.6l1.4,3.6c0.2-0.5,0.4-0.9,0.8-1.2C-19.2,318.8-18.8,318.7-18.5,318.8
				 M-30.2,357l2.5-1.8l2.6,1.8c2,1.6,3.9,3.4,5.6,5.5c5.4,6.6,8.1,14.2,8.1,23v42.3H-13v-36.4c0-3.7-1.1-7-3.4-9.9
				c-1.2-1.5-2.5-2.7-4-3.6l-0.1,0l-3.1,2.6c-2.2,2.3-3.6,5-4.1,8.1v0.1c-0.5-3.1-1.9-5.8-4.1-8.2l-3.1-2.6l-0.1,0
				c-1.5,0.9-2.8,2.1-4,3.6c-2.3,2.8-3.4,6.1-3.4,9.9v36.4h-1.6v-42.3c0-8.8,2.7-16.5,8.1-23C-34.1,360.5-32.2,358.6-30.2,357
				 M-25,353.2l-2.7-1.8l-2.7,1.8c-2.1,1.7-4.1,3.6-5.9,5.7c-5.7,6.9-8.6,15-8.6,24.3v44.6h-2v-56.1l19.1-48.6l19.1,48.6v56.1h-2
				v-44.6c0-9.3-2.8-17.4-8.5-24.3C-20.9,356.8-22.9,354.9-25,353.2 M-27.7,309.4L-8.6,358v10.5l-19.1-48.6l-19.1,48.6V358
				L-27.7,309.4 M-19.6,380.9c0.2,0.2,0.3,0.4,0.3,0.7v0.6h0.6c0.3,0,0.5,0.1,0.7,0.3c0.2,0.2,0.3,0.4,0.3,0.7s-0.1,0.5-0.3,0.7
				c-0.2,0.2-0.4,0.3-0.7,0.3h-0.6v0.6c0,0.3-0.1,0.5-0.3,0.7c-0.2,0.2-0.4,0.3-0.7,0.3c-0.3,0-0.5-0.1-0.7-0.3
				c-0.2-0.2-0.3-0.4-0.3-0.7v-0.6H-22c-0.3,0-0.5-0.1-0.7-0.3c-0.2-0.2-0.3-0.4-0.3-0.7c0-0.3,0.1-0.5,0.3-0.7
				c0.2-0.2,0.4-0.3,0.7-0.3h0.6v-0.6c0-0.3,0.1-0.5,0.3-0.7c0.2-0.2,0.4-0.3,0.7-0.3C-20,380.6-19.8,380.7-19.6,380.9 M-18.1,385
				c0.3-0.3,0.7-0.5,1.2-0.5c0.5,0,0.9,0.2,1.2,0.5c0.3,0.3,0.5,0.7,0.5,1.2s-0.2,0.9-0.5,1.2c-0.3,0.3-0.8,0.5-1.2,0.5
				c-0.5,0-0.9-0.2-1.2-0.5c-0.3-0.3-0.5-0.7-0.5-1.2C-18.7,385.7-18.5,385.3-18.1,385 M-17,392.3v0.6h3.9v0.8H-17v34.1h-6.6v-34.1
				h-3.8v-0.8h3.8v-0.6c0-1.8,0.6-3.3,1.7-4.7l1.6-1.5l1.7,1.5C-17.6,389-17,390.5-17,392.3 M-36,381.6c0-0.3,0.1-0.5,0.3-0.7
				c0.2-0.2,0.4-0.3,0.7-0.3c0.3,0,0.5,0.1,0.7,0.3c0.2,0.2,0.3,0.4,0.3,0.7v0.6h0.6c0.3,0,0.5,0.1,0.7,0.3c0.2,0.2,0.3,0.4,0.3,0.7
				s-0.1,0.5-0.3,0.7c-0.2,0.2-0.4,0.3-0.7,0.3H-34v0.6c0,0.3-0.1,0.5-0.3,0.7c-0.2,0.2-0.4,0.3-0.7,0.3c-0.3,0-0.5-0.1-0.7-0.3
				c-0.2-0.2-0.3-0.4-0.3-0.7v-0.6h-0.6c-0.3,0-0.5-0.1-0.7-0.3c-0.2-0.2-0.3-0.4-0.3-0.7c0-0.3,0.1-0.5,0.3-0.7
				c0.2-0.2,0.4-0.3,0.7-0.3h0.6V381.6 M-38.4,384.5c0.5,0,0.9,0.2,1.2,0.5c0.3,0.3,0.5,0.7,0.5,1.2s-0.2,0.9-0.5,1.2
				c-0.3,0.3-0.8,0.5-1.2,0.5c-0.5,0-0.9-0.2-1.2-0.5c-0.3-0.3-0.5-0.7-0.5-1.2s0.2-0.9,0.5-1.2C-39.3,384.6-38.9,384.5-38.4,384.5
				 M-32.9,387.4c-0.3-0.3-0.5-0.7-0.5-1.2s0.2-0.9,0.5-1.2c0.3-0.3,0.8-0.5,1.2-0.5c0.5,0,0.9,0.2,1.2,0.5c0.3,0.3,0.5,0.7,0.5,1.2
				c0,0.5-0.2,0.9-0.5,1.2c-0.3,0.3-0.7,0.5-1.2,0.5C-32.1,387.9-32.5,387.7-32.9,387.4 M-35,386.2l1.7,1.5c1.1,1.3,1.7,2.9,1.7,4.7
				v0.6h4v0.8h-4v34.1h-6.6v-34.1h-3.9v-0.8h3.9v-0.6c0-1.8,0.6-3.3,1.7-4.7L-35,386.2 M-24.9,385c0.3-0.3,0.8-0.5,1.2-0.5
				s0.9,0.2,1.2,0.5c0.3,0.3,0.5,0.7,0.5,1.2s-0.2,0.9-0.5,1.2c-0.3,0.3-0.8,0.5-1.2,0.5s-0.9-0.2-1.2-0.5c-0.3-0.3-0.5-0.7-0.5-1.2
				S-25.3,385.3-24.9,385 M47.8,416c1.3-1,2.7-1.7,4.2-2.2c0.7-0.3,1.4-0.4,1.8-0.5c-2-7.1-2.2-12.8-0.6-17.1c0.5-1.4,1.1-2.5,2-3.4
				l1-1l1,1c0.8,0.9,1.5,2,2,3.4c1.6,4.3,1.4,9.9-0.6,17c-0.1-0.6-0.4-1-0.8-1.4c-0.5-0.4-1-0.6-1.6-0.6l0,0c-0.6,0-1.1,0.2-1.6,0.6
				c-0.4,0.4-0.7,0.9-0.8,1.5l0,0.3c0,0.5,0.1,1,0.4,1.4c0.3,0.4,0.7,0.7,1.1,0.9c-0.5,3.2-1.6,6-3.3,8.4c-2.8,4-6.7,6-11.8,5.9
				C41.1,423.8,43.6,419,47.8,416 M133.1,362.5c2.7-3.3,5.4-5.7,8.1-7.2l2.6,1.8c2,1.6,3.9,3.4,5.6,5.5c5.4,6.6,8.1,14.2,8.1,23
				v42.3h-1.6v-36.4c0-3.7-1.1-7-3.4-9.9c-1.2-1.5-2.5-2.7-4-3.6l-0.1,0c-1,0.6-2,1.4-3.1,2.6c-2.2,2.3-3.6,5-4.1,8.1v0.1
				c-0.5-3.1-1.9-5.8-4.1-8.2l-3.1-2.6l-0.1,0c-1.5,0.9-2.8,2.1-4,3.6c-2.3,2.8-3.4,6.1-3.4,9.9v36.4H125v-42.3
				C125,376.7,127.7,369.1,133.1,362.5 M149.8,358.9c-1.8-2.2-3.8-4.1-5.9-5.7l-2.7-1.8c-2.8,1.6-5.7,4.1-8.5,7.6
				c-5.7,6.9-8.6,15-8.6,24.3v44.6h-2v-56.1l19.1-48.6l19.1,48.6v56.1h-2v-44.6C158.3,374,155.5,365.9,149.8,358.9 M58.7,413.6
				l0-0.3c2.2,0.4,4.3,1.4,6.4,3c4,3.1,6.3,7.7,7.1,14c-5.1,0-9-1.9-11.8-5.9c-1.7-2.4-2.8-5.2-3.3-8.5c0.5-0.2,0.9-0.5,1.1-0.9
				C58.5,414.6,58.7,414.1,58.7,413.6 M147.6,381.6c0-0.3,0.1-0.5,0.3-0.7c0.2-0.2,0.4-0.3,0.7-0.3c0.3,0,0.5,0.1,0.7,0.3
				c0.2,0.2,0.3,0.4,0.3,0.7v0.6h0.6c0.3,0,0.5,0.1,0.7,0.3c0.2,0.2,0.3,0.4,0.3,0.7s-0.1,0.5-0.3,0.7c-0.2,0.2-0.4,0.3-0.7,0.3
				h-0.6v0.6c0,0.3-0.1,0.5-0.3,0.7c-0.2,0.2-0.4,0.3-0.7,0.3c-0.3,0-0.5-0.1-0.7-0.3c-0.2-0.2-0.3-0.4-0.3-0.7v-0.6h-0.6
				c-0.3,0-0.5-0.1-0.7-0.3c-0.2-0.2-0.3-0.4-0.3-0.7c0-0.3,0.1-0.5,0.3-0.7c0.2-0.2,0.4-0.3,0.7-0.3h0.6V381.6 M134.5,380.9
				c0.2,0.2,0.3,0.4,0.3,0.7v0.6h0.6c0.3,0,0.5,0.1,0.7,0.3c0.2,0.2,0.3,0.4,0.3,0.7s-0.1,0.5-0.3,0.7c-0.2,0.2-0.4,0.3-0.7,0.3
				h-0.6v0.6c0,0.3-0.1,0.5-0.3,0.7c-0.2,0.2-0.4,0.3-0.7,0.3c-0.3,0-0.5-0.1-0.7-0.3c-0.2-0.2-0.3-0.4-0.3-0.7v-0.6h-0.6
				c-0.3,0-0.5-0.1-0.7-0.3c-0.2-0.2-0.3-0.4-0.3-0.7c0-0.3,0.1-0.5,0.3-0.7c0.2-0.2,0.4-0.3,0.7-0.3h0.6v-0.6
				c0-0.3,0.1-0.5,0.3-0.7c0.2-0.2,0.4-0.3,0.7-0.3C134.1,380.6,134.4,380.7,134.5,380.9 M137.2,384.5c0.5,0,0.9,0.2,1.2,0.5
				c0.3,0.3,0.5,0.7,0.5,1.2c0,0.5-0.2,0.9-0.5,1.2c-0.3,0.3-0.7,0.5-1.2,0.5c-0.5,0-0.9-0.2-1.2-0.5c-0.3-0.3-0.5-0.7-0.5-1.2
				s0.2-0.9,0.5-1.2C136.4,384.6,136.8,384.5,137.2,384.5 M130.5,384.5c0.5,0,0.9,0.2,1.2,0.5c0.3,0.3,0.5,0.7,0.5,1.2
				s-0.2,0.9-0.5,1.2c-0.3,0.3-0.8,0.5-1.2,0.5c-0.5,0-0.9-0.2-1.2-0.5c-0.3-0.3-0.5-0.7-0.5-1.2s0.2-0.9,0.5-1.2
				C129.6,384.6,130,384.5,130.5,384.5 M133.8,386.2l1.7,1.5c1.1,1.3,1.7,2.9,1.7,4.7v0.6h4v0.8h-4v34.1h-6.6v-34.1h-3.9v-0.8h3.9
				v-0.6c0-1.8,0.6-3.3,1.7-4.7C132.7,387,133.3,386.5,133.8,386.2 M151.9,384.5c0.5,0,0.9,0.2,1.2,0.5c0.3,0.3,0.5,0.7,0.5,1.2
				s-0.2,0.9-0.5,1.2c-0.3,0.3-0.8,0.5-1.2,0.5c-0.5,0-0.9-0.2-1.2-0.5c-0.3-0.3-0.5-0.7-0.5-1.2c0-0.5,0.2-0.9,0.5-1.2
				C151.1,384.6,151.5,384.5,151.9,384.5 M145.2,384.5c0.5,0,0.9,0.2,1.2,0.5c0.3,0.3,0.5,0.7,0.5,1.2s-0.2,0.9-0.5,1.2
				c-0.3,0.3-0.8,0.5-1.2,0.5c-0.5,0-0.9-0.2-1.2-0.5c-0.3-0.3-0.5-0.7-0.5-1.2s0.2-0.9,0.5-1.2
				C144.3,384.6,144.7,384.5,145.2,384.5 M86.4,434.5v16.7l-30.2-77.7L26,451.2v-16.7l30.1-77.8L86.4,434.5 M86.4,456.4v4.6
				l-30.2-77.7L26,461v-4.6l30.1-77.8L86.4,456.4 M142.7,344.8l0,0.2c0,0.7-0.3,1.2-1,1.4c0.3,2,1,3.8,2.1,5.3
				c1.7,2.5,4.2,3.7,7.5,3.7c-0.5-3.9-2-6.8-4.5-8.7C145.5,345.6,144.1,345,142.7,344.8 M140.7,346.4c-0.7-0.2-1-0.7-1-1.4l0-0.2
				c-1.2,0.2-2.5,0.7-3.8,1.7c-2.6,1.9-4.2,4.9-4.8,8.9c3.2,0,5.7-1.2,7.5-3.7C139.6,350.2,140.3,348.4,140.7,346.4 M141.9,331.9
				l-0.7-0.6c-0.2,0.1-0.4,0.3-0.7,0.6c-0.5,0.6-0.9,1.3-1.2,2.1c-1,2.7-0.9,6.3,0.4,10.7c0-0.4,0.2-0.7,0.5-1
				c0.3-0.2,0.6-0.4,1-0.4c0.4,0,0.7,0.1,1,0.3c0.3,0.2,0.4,0.5,0.5,0.9c1.3-4.4,1.4-7.9,0.4-10.6
				C142.8,333.2,142.4,332.5,141.9,331.9 M131.3,375.8c-0.4,0-0.7,0.1-0.9,0.4c-0.3,0.2-0.4,0.6-0.4,0.9c0,0.3,0.1,0.7,0.4,0.9
				c0.2,0.2,0.6,0.4,0.9,0.4c0.3,0,0.7-0.1,0.9-0.4c0.2-0.3,0.4-0.6,0.4-0.9c0-0.4-0.1-0.7-0.4-0.9
				C132,375.9,131.7,375.8,131.3,375.8 M138.2,370.3c0.3-0.3,0.4-0.6,0.4-1c0-0.4-0.1-0.8-0.4-1.1c-0.3-0.3-0.7-0.4-1.1-0.4
				c-0.4,0-0.8,0.1-1.1,0.4c-0.3,0.3-0.4,0.7-0.4,1.1c0,0.4,0.1,0.8,0.4,1c0.3,0.3,0.7,0.4,1.1,0.4
				C137.6,370.8,137.9,370.6,138.2,370.3 M152.4,377.1c0-0.4-0.1-0.7-0.4-0.9c-0.3-0.3-0.6-0.4-1-0.4s-0.7,0.1-0.9,0.4
				c-0.3,0.2-0.4,0.6-0.4,0.9c0,0.3,0.1,0.7,0.4,0.9c0.2,0.2,0.6,0.4,0.9,0.4s0.7-0.1,1-0.4C152.3,377.8,152.4,377.5,152.4,377.1
				 M144.2,368.2c-0.3,0.3-0.4,0.7-0.4,1.1c0,0.4,0.1,0.8,0.4,1c0.3,0.3,0.7,0.4,1.1,0.4s0.8-0.1,1.1-0.4c0.3-0.3,0.4-0.6,0.4-1
				c0-0.4-0.1-0.8-0.4-1.1c-0.3-0.3-0.7-0.4-1.1-0.4S144.5,367.9,144.2,368.2 M141.2,373.4c-2,3.1-2.6,5.6-1.8,7.7
				c0.4,1,1,1.8,1.8,2.2c0.8-0.4,1.4-1.1,1.8-2.2C143.8,379,143.2,376.4,141.2,373.4 M141.2,373.4c-0.7-0.7-1.6-1.2-2.7-1.5
				c-2.3-0.7-4.4-0.2-6.5,1.5c2.1,1.7,4.3,2.2,6.5,1.5C139.6,374.5,140.5,374,141.2,373.4 M150.4,373.4c-2.1-1.7-4.3-2.2-6.5-1.5
				c-0.7,0.2-1.4,0.5-2,1l-0.7,0.6l0.7,0.6c0.6,0.4,1.3,0.7,2,1C146.2,375.5,148.3,375,150.4,373.4 M140.5,364
				c-0.5,0.5-0.9,1-1.1,1.7c-0.8,2.1-0.2,4.6,1.8,7.7c2-3.1,2.6-5.6,1.8-7.7c-0.2-0.7-0.6-1.2-1.1-1.7l-0.7-0.5
				C141,363.6,140.8,363.8,140.5,364 M-26.1,344.8l0,0.2c0,0.7-0.3,1.2-1,1.4c0.3,2,1,3.8,2.1,5.3c1.7,2.5,4.2,3.7,7.5,3.7
				c-0.5-3.9-2-6.8-4.5-8.7C-23.4,345.6-24.8,345-26.1,344.8 M-29.2,344.8c-0.3,0-0.7,0.1-1.2,0.3c-0.9,0.3-1.8,0.8-2.7,1.4
				c-2.6,1.9-4.2,4.9-4.8,8.9c3.2,0,5.7-1.2,7.5-3.7c1.1-1.5,1.8-3.3,2.1-5.3c-0.7-0.2-1-0.7-1-1.4L-29.2,344.8 M-25.8,334
				c-0.3-0.8-0.7-1.5-1.2-2.1l-0.7-0.6l-0.7,0.6c-0.5,0.6-0.9,1.3-1.2,2.1c-1,2.7-0.9,6.3,0.4,10.7c0-0.4,0.2-0.7,0.5-1
				c0.3-0.2,0.6-0.4,1-0.4c0.4,0,0.7,0.1,1,0.3c0.3,0.2,0.4,0.5,0.5,0.9C-24.9,340.2-24.7,336.7-25.8,334 M-36.2,377.1
				c0-0.4-0.1-0.7-0.4-0.9c-0.3-0.3-0.6-0.4-0.9-0.4c-0.4,0-0.7,0.1-0.9,0.4c-0.3,0.2-0.4,0.6-0.4,0.9c0,0.3,0.1,0.7,0.4,0.9
				c0.2,0.2,0.6,0.4,0.9,0.4c0.3,0,0.7-0.1,0.9-0.4C-36.4,377.8-36.2,377.5-36.2,377.1 M-30.7,370.3c0.3-0.3,0.4-0.6,0.4-1
				c0-0.4-0.1-0.8-0.4-1.1c-0.3-0.3-0.7-0.4-1.1-0.4c-0.4,0-0.8,0.1-1.1,0.4c-0.3,0.3-0.4,0.7-0.4,1.1c0,0.4,0.1,0.8,0.4,1
				c0.3,0.3,0.7,0.4,1.1,0.4C-31.3,370.8-31,370.6-30.7,370.3 M-24.7,368.2c-0.3,0.3-0.4,0.7-0.4,1.1c0,0.4,0.1,0.8,0.4,1
				c0.3,0.3,0.7,0.4,1.1,0.4c0.4,0,0.8-0.1,1.1-0.4c0.3-0.3,0.4-0.6,0.4-1c0-0.4-0.1-0.8-0.4-1.1c-0.3-0.3-0.7-0.4-1.1-0.4
				C-24,367.8-24.4,367.9-24.7,368.2 M-17.8,375.8c-0.4,0-0.7,0.1-0.9,0.4c-0.3,0.2-0.4,0.6-0.4,0.9c0,0.3,0.1,0.7,0.4,0.9
				c0.2,0.2,0.6,0.4,0.9,0.4c0.4,0,0.7-0.1,1-0.4c0.2-0.3,0.4-0.6,0.4-0.9c0-0.4-0.1-0.7-0.4-0.9C-17.1,375.9-17.4,375.8-17.8,375.8
				 M-27.7,373.4c-2,3.1-2.6,5.6-1.8,7.7c0.4,1,1,1.8,1.8,2.2c0.8-0.4,1.4-1.1,1.8-2.2C-25,379-25.6,376.4-27.7,373.4 M-27.7,373.4
				c-0.7-0.7-1.6-1.2-2.7-1.5c-2.3-0.7-4.4-0.2-6.5,1.5c2.1,1.7,4.3,2.2,6.5,1.5C-29.3,374.5-28.4,374-27.7,373.4 M-26.9,372.8
				c-0.3,0.2-0.6,0.4-0.7,0.6l0.7,0.6c0.6,0.4,1.3,0.7,2,1c2.2,0.7,4.4,0.2,6.5-1.5c-2.1-1.7-4.3-2.2-6.5-1.5
				C-25.6,372.1-26.3,372.4-26.9,372.8 M-27.7,363.5l-0.7,0.5c-0.5,0.5-0.9,1-1.1,1.7c-0.8,2.1-0.2,4.6,1.8,7.7
				c2-3.1,2.6-5.6,1.8-7.7c-0.2-0.7-0.6-1.2-1.1-1.7L-27.7,363.5z"/>
		</g>
	</g>
</g>
</svg>
